<?xml version="1.0" encoding="UTF-8" standalone="no"?><!DOCTYPE svg PUBLIC "-//W3C//DTD SVG 1.1//EN" "http://www.w3.org/Graphics/SVG/1.1/DTD/svg11.dtd"><svg width="100%" height="100%" viewBox="0 0 500 500" version="1.1" xmlns="http://www.w3.org/2000/svg" xmlns:xlink="http://www.w3.org/1999/xlink" xml:space="preserve" xmlns:serif="http://www.serif.com/" style="fill-rule:evenodd;clip-rule:evenodd;"><g id="Layer-1" serif:id="Layer 1"><g><path id="path4445" d="M346.563,105.343c0,53.878 -44.336,98.214 -98.215,98.214c-53.878,0 -98.214,-44.336 -98.214,-98.214c0,-53.879 44.336,-98.215 98.214,-98.215c53.879,0 98.215,44.336 98.215,98.215l0,0Z" style="fill:#fff;stroke:#000;stroke-width:8.33px;"/><text x="229.015px" y="126.509px" style="font-family:'SourceSansPro-Bold', 'Source Sans Pro', sans-serif;font-weight:700;font-size:83.333px;fill:#f60;">r</text></g><g><path id="path44451" serif:id="path4445" d="M203.525,396.2c0,53.879 -44.335,98.214 -98.214,98.214c-53.879,0 -98.214,-44.335 -98.214,-98.214c0,-53.879 44.335,-98.214 98.214,-98.214c53.879,0 98.214,44.335 98.214,98.214l0,0Z" style="fill:#fff;stroke:#000;stroke-width:8.33px;"/><text x="84.061px" y="416.867px" style="font-family:'SourceSansPro-Bold', 'Source Sans Pro', sans-serif;font-weight:700;font-size:83.333px;fill:#f60;">a</text></g><g><path id="path44452" serif:id="path4445" d="M493.724,396.2c0,53.879 -44.336,98.214 -98.215,98.214c-53.878,0 -98.214,-44.335 -98.214,-98.214c0,-53.879 44.336,-98.214 98.214,-98.214c53.879,0 98.215,44.335 98.215,98.214l0,0Z" style="fill:#fff;stroke:#000;stroke-width:8.33px;"/><text x="370.551px" y="424.908px" style="font-family:'SourceSansPro-Bold', 'Source Sans Pro', sans-serif;font-weight:700;font-size:83.333px;fill:#f60;">b</text></g><path d="M173.136,289.396l-22.269,16.892l-0.152,-27.95l22.421,11.058Z"/><path d="M206.222,194.055c0,0 -30.875,62.601 -46.508,94.296" style="fill:none;stroke:#000;stroke-width:8.33px;stroke-linecap:round;stroke-linejoin:round;stroke-miterlimit:1.5;"/><path d="M356.423,275.291l-0.152,27.951l-22.269,-16.892l22.421,-11.059Z"/><path d="M300.24,189.638c0,0 31.395,63.654 47.184,95.667" style="fill:none;stroke:#000;stroke-width:8.33px;stroke-linecap:round;stroke-linejoin:round;stroke-miterlimit:1.5;"/></g></svg>