<?xml version="1.0" encoding="UTF-8" standalone="no"?><!DOCTYPE svg PUBLIC "-//W3C//DTD SVG 1.1//EN" "http://www.w3.org/Graphics/SVG/1.1/DTD/svg11.dtd"><svg width="100%" height="100%" viewBox="0 0 1059 842" version="1.1" xmlns="http://www.w3.org/2000/svg" xmlns:xlink="http://www.w3.org/1999/xlink" xml:space="preserve" xmlns:serif="http://www.serif.com/" style="fill-rule:evenodd;clip-rule:evenodd;"><g id="graph0"><g id="node1"><circle id="ellipse6" cx="225.959" cy="757.516" r="75.283" style="fill:#fff;stroke:#000;stroke-width:4.17px;"/><text id="text8" x="213.694px" y="770.21px" style="font-family:'Times-Italic', 'Times';font-style:italic;font-size:58.553px;">x</text></g><g id="node2"><circle id="ellipse13" cx="527.091" cy="757.516" r="75.283" style="fill:#fff;stroke:#000;stroke-width:4.17px;"/><text id="text15" x="515.383px" y="764.42px" style="font-family:'Times-Italic', 'Times';font-style:italic;font-size:58.553px;">y</text></g><g id="node3"><ellipse id="ellipse20" cx="676.312" cy="535.276" rx="71.101" ry="75.283" style="fill:#fff;stroke:#000;stroke-width:4.17px;"/><text id="text22" x="663.318px" y="556.188px" style="font-family:'Times-Italic', 'Times';font-style:italic;font-size:58.553px;">y</text></g><g id="node4"><ellipse id="ellipse27" cx="75.393" cy="531.667" rx="71.101" ry="75.283" style="fill:#fff;stroke:#000;stroke-width:4.17px;"/><text id="text29" x="60.698px" y="551.366px" style="font-family:'Times-Roman', 'Times';font-size:58.553px;">6</text></g><g id="node5"><ellipse id="ellipse34" cx="376.525" cy="531.667" rx="71.101" ry="75.283" style="fill:#fff;stroke:#000;stroke-width:4.17px;"/><text id="text36" x="360px" y="546.462px" style="font-family:'Times-Roman', 'Times';font-size:58.553px;">+</text></g><path d="M294.149,668.764l-30.866,24.694l9.877,-38.275l20.989,13.581Z"/><path d="M329.264,591.483c0,0 -30.145,46.59 -49.684,76.787" style="fill:none;stroke:#000;stroke-width:4.17px;stroke-linecap:round;stroke-linejoin:round;stroke-miterlimit:1.5;"/><path d="M480.491,655.183l9.877,38.275l-30.867,-24.694l20.99,-13.581Z"/><path d="M424.387,591.483c0,0 30.145,46.59 49.683,76.787" style="fill:none;stroke:#000;stroke-width:4.17px;stroke-linecap:round;stroke-linejoin:round;stroke-miterlimit:1.5;"/><g id="node6"><circle id="ellipse55" cx="978.789" cy="531.667" r="75.283" style="fill:#fff;stroke:#000;stroke-width:4.17px;"/><text id="text57" x="949.513px" y="552.579px" style="font-family:'Times-Roman', 'Times';font-size:58.553px;">14</text></g><g id="node7"><circle id="ellipse69" cx="225.959" cy="305.818" r="75.283" style="fill:#fff;stroke:#000;stroke-width:4.17px;"/><text id="text71" x="209.462px" y="320.613px" style="font-family:'Times-Roman', 'Times';font-size:58.553px;">×</text></g><g id="node8"><ellipse id="ellipse90" cx="828.223" cy="305.818" rx="71.101" ry="75.283" style="fill:#fff;stroke:#000;stroke-width:4.17px;"/><text id="text92" x="813.671px" y="319.012px" style="font-family:'Times-Roman', 'Times';font-size:58.553px;">–</text></g><g id="node9"><circle id="ellipse104" cx="527.091" cy="79.969" r="75.283" style="fill:#fff;stroke:#000;stroke-width:4.17px;"/><text id="text106" x="510.566px" y="94.764px" style="font-family:'Times-Roman', 'Times';font-size:58.553px;">+</text></g><path d="M143.882,441.882l-30.866,24.694l9.876,-38.275l20.99,13.581Z"/><path d="M178.996,364.601c0,0 -30.145,46.59 -49.683,76.787" style="fill:none;stroke:#000;stroke-width:4.17px;stroke-linecap:round;stroke-linejoin:round;stroke-miterlimit:1.5;"/><path d="M330.223,428.301l9.877,38.275l-30.866,-24.694l20.989,-13.581Z"/><path d="M274.119,364.601c0,0 30.145,46.59 49.684,76.787" style="fill:none;stroke:#000;stroke-width:4.17px;stroke-linecap:round;stroke-linejoin:round;stroke-miterlimit:1.5;"/><path d="M309.617,238.506l-39.189,5.166l28.252,-27.646l10.937,22.48Z"/><path d="M479.772,141.817c0,0 -125.809,61.212 -182.368,88.73" style="fill:none;stroke:#000;stroke-width:4.17px;stroke-linecap:round;stroke-linejoin:round;stroke-miterlimit:1.5;"/><path d="M754.267,216.026l28.252,27.646l-39.189,-5.166l10.937,-22.48Z"/><path d="M573.174,141.817c0,0 125.81,61.212 182.369,88.73" style="fill:none;stroke:#000;stroke-width:4.17px;stroke-linecap:round;stroke-linejoin:round;stroke-miterlimit:1.5;"/><path d="M744.361,441.882l-30.866,24.694l9.876,-38.275l20.99,13.581Z"/><path d="M779.475,364.601c0,0 -30.145,46.59 -49.683,76.787" style="fill:none;stroke:#000;stroke-width:4.17px;stroke-linecap:round;stroke-linejoin:round;stroke-miterlimit:1.5;"/><path d="M930.702,428.301l9.877,38.275l-30.866,-24.694l20.989,-13.581Z"/><path d="M874.598,364.601c0,0 30.145,46.59 49.684,76.787" style="fill:none;stroke:#000;stroke-width:4.17px;stroke-linecap:round;stroke-linejoin:round;stroke-miterlimit:1.5;"/></g></svg>