<?xml version="1.0" encoding="UTF-8" standalone="no"?><!DOCTYPE svg PUBLIC "-//W3C//DTD SVG 1.1//EN" "http://www.w3.org/Graphics/SVG/1.1/DTD/svg11.dtd"><svg width="100%" height="100%" viewBox="0 0 938 584" version="1.1" xmlns="http://www.w3.org/2000/svg" xmlns:xlink="http://www.w3.org/1999/xlink" xml:space="preserve" xmlns:serif="http://www.serif.com/" style="fill-rule:evenodd;clip-rule:evenodd;"><g id="Layer-1" serif:id="Layer 1"><path id="path5122" d="M266.059,111.247l-157.693,366.537" style="fill:none;stroke:#000;stroke-width:8.33px;"/><path id="path51221" serif:id="path5122" d="M110.166,479.402l417.343,-129.303" style="fill:none;stroke:#000;stroke-width:8.33px;"/><path id="path51222" serif:id="path5122" d="M824.127,146.463l-297.878,203.29" style="fill:none;stroke:#000;stroke-width:8.33px;"/><path id="path5114" d="M269.023,113.367l255.891,234.371" style="fill:none;stroke:#000;stroke-width:8.33px;"/><g><path id="path4622" d="M624.977,348.256c0,53.878 -44.336,98.214 -98.215,98.214c-53.878,0 -98.214,-44.336 -98.214,-98.214c0,-53.879 44.336,-98.215 98.214,-98.215c53.879,0 98.215,44.336 98.215,98.215l0,0Z" style="fill:#fff;stroke:#000;stroke-width:8.33px;"/><text x="501.804px" y="376.964px" style="font-family:'SourceSansPro-Bold', 'Source Sans Pro', sans-serif;font-weight:700;font-size:83.333px;fill:#f60;">b</text></g><g><path id="path4455" d="M205.201,478.501c0,53.879 -44.336,98.214 -98.214,98.214c-53.879,0 -98.215,-44.335 -98.215,-98.214c0,-53.879 44.336,-98.214 98.215,-98.214c53.878,0 98.214,44.335 98.214,98.214l0,0Z" style="fill:#fff;stroke:#000;stroke-width:8.33px;"/><text x="86.945px" y="499.168px" style="font-family:'SourceSansPro-Bold', 'Source Sans Pro', sans-serif;font-weight:700;font-size:83.333px;fill:#f60;">c</text></g><g><path id="path4016" d="M365.793,107.614c0,53.878 -44.336,98.214 -98.214,98.214c-53.879,0 -98.215,-44.336 -98.215,-98.214c0,-53.879 44.336,-98.215 98.215,-98.215c53.878,0 98.214,44.336 98.214,98.215l0,0Z" style="fill:#fff;stroke:#000;stroke-width:8.33px;"/><text x="246.329px" y="128.28px" style="font-family:'SourceSansPro-Bold', 'Source Sans Pro', sans-serif;font-weight:700;font-size:83.333px;fill:#f60;">a</text></g><g><path id="path4752" d="M926.041,142.295c0,53.878 -44.335,98.214 -98.214,98.214c-53.879,0 -98.214,-44.336 -98.214,-98.214c0,-53.879 44.335,-98.215 98.214,-98.215c53.879,0 98.214,44.336 98.214,98.215l0,0Z" style="fill:#fff;stroke:#000;stroke-width:8.33px;"/><text x="804.619px" y="169.461px" style="font-family:'SourceSansPro-Bold', 'Source Sans Pro', sans-serif;font-weight:700;font-size:83.333px;fill:#f60;">d</text></g></g></svg>