<?xml version="1.0" encoding="UTF-8" standalone="no"?><!DOCTYPE svg PUBLIC "-//W3C//DTD SVG 1.1//EN" "http://www.w3.org/Graphics/SVG/1.1/DTD/svg11.dtd"><svg width="100%" height="100%" viewBox="0 0 938 584" version="1.1" xmlns="http://www.w3.org/2000/svg" xmlns:xlink="http://www.w3.org/1999/xlink" xml:space="preserve" xmlns:serif="http://www.serif.com/" style="fill-rule:evenodd;clip-rule:evenodd;"><g id="Layer-1" serif:id="Layer 1"><path id="path5122" d="M169.432,351.447l-21.095,33.429l-3.181,-39.4l24.276,5.971Z"/><path d="M229.081,197.196c-36.587,49.94 -58.73,103.364 -73.579,158.548" style="fill:none;stroke:#000;stroke-width:8.33px;"/><path id="path51221" serif:id="path5122" d="M401.102,92.665l-39.049,-6.137l34.922,-18.52l4.127,24.657Z"/><path d="M727.951,108.106c-112.715,-37.636 -224.749,-43.248 -336.31,-26.531" style="fill:none;stroke:#000;stroke-width:8.33px;"/><path id="path51222" serif:id="path5122" d="M654.668,467.182l39.519,-0.825l-31.12,24.372l-8.399,-23.547Z"/><path d="M208.281,480.633c159.461,39.873 312.905,43.814 457.65,-4.197" style="fill:none;stroke:#000;stroke-width:8.33px;"/><path id="path5114" d="M849.612,248.483l-17.422,-35.482l-7.351,38.839l24.773,-3.357Z"/><path d="M836.218,242.729c3.127,41.68 -4.851,79.702 -20.723,116.336" style="fill:none;stroke:#000;stroke-width:8.33px;"/><g><path id="path4622" d="M595.574,292.631c0,53.879 -44.335,98.214 -98.214,98.214c-53.879,0 -98.215,-44.335 -98.215,-98.214c0,-53.879 44.336,-98.215 98.215,-98.215c53.879,0 98.214,44.336 98.214,98.215l0,0Z" style="fill:#fff;stroke:#000;stroke-width:8.33px;"/><text x="472.401px" y="321.339px" style="font-family:'SourceSansPro-Bold', 'Source Sans Pro', sans-serif;font-weight:700;font-size:83.333px;fill:#f60;">b</text></g><g><path id="path4455" d="M205.201,478.501c0,53.879 -44.336,98.214 -98.214,98.214c-53.879,0 -98.215,-44.335 -98.215,-98.214c0,-53.879 44.336,-98.214 98.215,-98.214c53.878,0 98.214,44.335 98.214,98.214l0,0Z" style="fill:#fff;stroke:#000;stroke-width:8.33px;"/><text x="86.945px" y="499.168px" style="font-family:'SourceSansPro-Bold', 'Source Sans Pro', sans-serif;font-weight:700;font-size:83.333px;fill:#f60;">c</text></g><g><path id="path4016" d="M365.793,107.614c0,53.878 -44.336,98.214 -98.214,98.214c-53.879,0 -98.215,-44.336 -98.215,-98.214c0,-53.879 44.336,-98.215 98.215,-98.215c53.878,0 98.214,44.336 98.214,98.215l0,0Z" style="fill:#fff;stroke:#000;stroke-width:8.33px;"/><text x="246.329px" y="128.28px" style="font-family:'SourceSansPro-Bold', 'Source Sans Pro', sans-serif;font-weight:700;font-size:83.333px;fill:#f60;">a</text></g><g><path id="path4752" d="M924.751,112.105c0,53.878 -44.336,98.214 -98.214,98.214c-53.879,0 -98.215,-44.336 -98.215,-98.214c0,-53.879 44.336,-98.215 98.215,-98.215c53.878,0 98.214,44.336 98.214,98.215l0,0Z" style="fill:#fff;stroke:#000;stroke-width:8.33px;"/><text x="803.328px" y="139.271px" style="font-family:'SourceSansPro-Bold', 'Source Sans Pro', sans-serif;font-weight:700;font-size:83.333px;fill:#f60;">d</text></g><g><path id="path4863" d="M891.816,454.811c0,53.879 -44.335,98.214 -98.214,98.214c-53.879,0 -98.214,-44.335 -98.214,-98.214c0,-53.879 44.335,-98.214 98.214,-98.214c53.879,0 98.214,44.335 98.214,98.214l0,0Z" style="fill:#fff;stroke:#000;stroke-width:8.33px;"/><text x="772.06px" y="475.478px" style="font-family:'SourceSansPro-Bold', 'Source Sans Pro', sans-serif;font-weight:700;font-size:83.333px;fill:#f60;">e</text></g></g></svg>