<?xml version="1.0" encoding="UTF-8" standalone="no"?><!DOCTYPE svg PUBLIC "-//W3C//DTD SVG 1.1//EN" "http://www.w3.org/Graphics/SVG/1.1/DTD/svg11.dtd"><svg width="100%" height="100%" viewBox="0 0 938 584" version="1.1" xmlns="http://www.w3.org/2000/svg" xmlns:xlink="http://www.w3.org/1999/xlink" xml:space="preserve" xmlns:serif="http://www.serif.com/" style="fill-rule:evenodd;clip-rule:evenodd;"><g id="Layer-1" serif:id="Layer 1"><path id="path5122" d="M162.752,249.502l-2.718,-39.435l-21.487,33.179l24.205,6.256Z"/><path d="M152.527,239.113c-12.465,48.226 -36.076,139.573 -36.076,139.573" style="fill:none;stroke:#000;stroke-width:8.33px;"/><path id="path51221" serif:id="path5122" d="M221.858,402.022l-28.635,27.25l39.258,-4.619l-10.623,-22.631Z"/><path d="M220.38,416.524c111.004,-52.106 524.393,-246.155 524.393,-246.155" style="fill:none;stroke:#000;stroke-width:8.33px;"/><path id="path51222" serif:id="path5122" d="M689.832,103.522l37.533,12.401l-37.467,12.599l-0.066,-25Z"/><path d="M282.607,117.093c0,0 314.897,-0.828 414.758,-1.091" style="fill:none;stroke:#000;stroke-width:8.33px;"/><path id="path5114" d="M782.067,347.895l-20.804,33.611l-3.524,-39.371l24.328,5.76Z"/><path d="M802.373,207.877c0,0 -22.486,94.971 -34.198,144.437" style="fill:none;stroke:#000;stroke-width:8.33px;"/><g><path id="path4455" d="M205.201,478.501c0,53.879 -44.336,98.214 -98.214,98.214c-53.879,0 -98.215,-44.335 -98.215,-98.214c0,-53.879 44.336,-98.214 98.215,-98.214c53.878,0 98.214,44.335 98.214,98.214l0,0Z" style="fill:#fff;stroke:#000;stroke-width:8.33px;"/><text x="86.945px" y="499.168px" style="font-family:'SourceSansPro-Bold', 'Source Sans Pro', sans-serif;font-weight:700;font-size:83.333px;fill:#f60;">b</text></g><g><path id="path4016" d="M282.459,112.105c0,53.878 -44.335,98.214 -98.214,98.214c-53.879,0 -98.214,-44.336 -98.214,-98.214c0,-53.879 44.335,-98.215 98.214,-98.215c53.879,0 98.214,44.336 98.214,98.215l0,0Z" style="fill:#fff;stroke:#000;stroke-width:8.33px;"/><text x="162.995px" y="132.771px" style="font-family:'SourceSansPro-Bold', 'Source Sans Pro', sans-serif;font-weight:700;font-size:83.333px;fill:#f60;">a</text></g><g><path id="path4752" d="M924.751,112.105c0,53.878 -44.336,98.214 -98.214,98.214c-53.879,0 -98.215,-44.336 -98.215,-98.214c0,-53.879 44.336,-98.215 98.215,-98.215c53.878,0 98.214,44.336 98.214,98.215l0,0Z" style="fill:#fff;stroke:#000;stroke-width:8.33px;"/><text x="803.328px" y="139.271px" style="font-family:'SourceSansPro-Bold', 'Source Sans Pro', sans-serif;font-weight:700;font-size:83.333px;fill:#f60;">d</text></g><g><path id="path4863" d="M850.149,478.501c0,53.879 -44.335,98.214 -98.214,98.214c-53.879,0 -98.214,-44.335 -98.214,-98.214c0,-53.879 44.335,-98.214 98.214,-98.214c53.879,0 98.214,44.335 98.214,98.214l0,0Z" style="fill:#fff;stroke:#000;stroke-width:8.33px;"/><text x="730.394px" y="499.168px" style="font-family:'SourceSansPro-Bold', 'Source Sans Pro', sans-serif;font-weight:700;font-size:83.333px;fill:#f60;">c</text></g></g></svg>