<?xml version="1.0" encoding="UTF-8" standalone="no"?><!DOCTYPE svg PUBLIC "-//W3C//DTD SVG 1.1//EN" "http://www.w3.org/Graphics/SVG/1.1/DTD/svg11.dtd"><svg width="100%" height="100%" viewBox="0 0 584 584" version="1.1" xmlns="http://www.w3.org/2000/svg" xmlns:xlink="http://www.w3.org/1999/xlink" xml:space="preserve" xmlns:serif="http://www.serif.com/" style="fill-rule:evenodd;clip-rule:evenodd;"><g id="Layer-1" serif:id="Layer 1"><path id="path5122" d="M160.034,210.067l-43.583,168.619" style="fill:none;stroke:#000;stroke-width:8.33px;"/><path id="path51221" serif:id="path5122" d="M259.698,174.063l170.707,130.301" style="fill:none;stroke:#000;stroke-width:8.33px;"/><g><path id="path4455" d="M205.201,478.501c0,53.879 -44.336,98.214 -98.214,98.214c-53.879,0 -98.215,-44.335 -98.215,-98.214c0,-53.879 44.336,-98.214 98.215,-98.214c53.878,0 98.214,44.335 98.214,98.214l0,0Z" style="fill:#fff;stroke:#000;stroke-width:8.33px;"/><text x="86.945px" y="499.168px" style="font-family:'SourceSansPro-Bold', 'Source Sans Pro', sans-serif;font-weight:700;font-size:83.333px;fill:#f60;">b</text></g><g><path id="path4016" d="M282.459,112.105c0,53.878 -44.335,98.214 -98.214,98.214c-53.879,0 -98.214,-44.336 -98.214,-98.214c0,-53.879 44.335,-98.215 98.214,-98.215c53.879,0 98.214,44.336 98.214,98.215l0,0Z" style="fill:#fff;stroke:#000;stroke-width:8.33px;"/><text x="162.995px" y="132.771px" style="font-family:'SourceSansPro-Bold', 'Source Sans Pro', sans-serif;font-weight:700;font-size:83.333px;fill:#f60;">a</text></g><g><path id="path4863" d="M575.378,359.688c0,53.879 -44.336,98.215 -98.214,98.215c-53.879,0 -98.215,-44.336 -98.215,-98.215c0,-53.879 44.336,-98.214 98.215,-98.214c53.878,0 98.214,44.335 98.214,98.214l0,0Z" style="fill:#fff;stroke:#000;stroke-width:8.33px;"/><text x="455.622px" y="380.355px" style="font-family:'SourceSansPro-Bold', 'Source Sans Pro', sans-serif;font-weight:700;font-size:83.333px;fill:#f60;">c</text></g></g></svg>