<?xml version="1.0" encoding="UTF-8" standalone="no"?><!DOCTYPE svg PUBLIC "-//W3C//DTD SVG 1.1//EN" "http://www.w3.org/Graphics/SVG/1.1/DTD/svg11.dtd"><svg width="100%" height="100%" viewBox="0 0 938 584" version="1.1" xmlns="http://www.w3.org/2000/svg" xmlns:xlink="http://www.w3.org/1999/xlink" xml:space="preserve" xmlns:serif="http://www.serif.com/" style="fill-rule:evenodd;clip-rule:evenodd;"><g id="Layer-1" serif:id="Layer 1"><path id="path5122" d="M225.744,236.584l3.337,-39.388l-26.302,29.508l22.965,9.88Z"/><path d="M217.225,224.754c-22.438,52.155 -68.888,160.122 -68.888,160.122" style="fill:none;stroke:#000;stroke-width:8.33px;"/><path id="path51221" serif:id="path5122" d="M245.21,467.04l-37.117,13.596l37.851,11.393l-0.734,-24.989Z"/><path d="M238.08,479.755c105.915,-3.111 456.107,-13.398 456.107,-13.398" style="fill:none;stroke:#000;stroke-width:8.33px;"/><path id="path51222" serif:id="path5122" d="M230.135,410.404l-29.01,26.85l39.318,-4.074l-10.308,-22.776Z"/><path d="M228.456,424.885c56.532,-25.586 181.078,-81.954 181.078,-81.954" style="fill:none;stroke:#000;stroke-width:8.33px;"/><path id="path5114" d="M631.524,241.372l-38.963,6.66l27.174,-28.706l11.789,22.046Z"/><path d="M743.959,167.073c0,0 -81.545,43.606 -124.943,66.812" style="fill:none;stroke:#000;stroke-width:8.33px;"/><path id="path51141" serif:id="path5114" d="M683.618,368.049l29.415,26.406l-39.375,-3.476l9.96,-22.93Z"/><path d="M584.285,338.529c0,0 63.414,27.546 101.232,43.973" style="fill:none;stroke:#000;stroke-width:8.33px;"/><g><path id="path4622" d="M595.574,292.631c0,53.879 -44.335,98.214 -98.214,98.214c-53.879,0 -98.215,-44.335 -98.215,-98.214c0,-53.879 44.336,-98.215 98.215,-98.215c53.879,0 98.214,44.336 98.214,98.215l0,0Z" style="fill:#fff;stroke:#000;stroke-width:8.33px;"/><text x="472.401px" y="321.339px" style="font-family:'SourceSansPro-Bold', 'Source Sans Pro', sans-serif;font-weight:700;font-size:83.333px;fill:#f60;">d</text></g><g><path id="path4455" d="M205.201,478.501c0,53.879 -44.336,98.214 -98.214,98.214c-53.879,0 -98.215,-44.335 -98.215,-98.214c0,-53.879 44.336,-98.214 98.215,-98.214c53.878,0 98.214,44.335 98.214,98.214l0,0Z" style="fill:#fff;stroke:#000;stroke-width:8.33px;"/><text x="86.945px" y="499.168px" style="font-family:'SourceSansPro-Bold', 'Source Sans Pro', sans-serif;font-weight:700;font-size:83.333px;fill:#f60;">b</text></g><g><path id="path4016" d="M365.793,107.614c0,53.878 -44.336,98.214 -98.214,98.214c-53.879,0 -98.215,-44.336 -98.215,-98.214c0,-53.879 44.336,-98.215 98.215,-98.215c53.878,0 98.214,44.336 98.214,98.215l0,0Z" style="fill:#fff;stroke:#000;stroke-width:8.33px;"/><text x="246.329px" y="128.28px" style="font-family:'SourceSansPro-Bold', 'Source Sans Pro', sans-serif;font-weight:700;font-size:83.333px;fill:#f60;">a</text></g><g><path id="path4752" d="M924.751,112.105c0,53.878 -44.336,98.214 -98.214,98.214c-53.879,0 -98.215,-44.336 -98.215,-98.214c0,-53.879 44.336,-98.215 98.215,-98.215c53.878,0 98.214,44.336 98.214,98.215l0,0Z" style="fill:#fff;stroke:#000;stroke-width:8.33px;"/><text x="803.328px" y="139.271px" style="font-family:'SourceSansPro-Bold', 'Source Sans Pro', sans-serif;font-weight:700;font-size:83.333px;fill:#f60;">e</text></g><g><path id="path4863" d="M891.816,454.811c0,53.879 -44.335,98.214 -98.214,98.214c-53.879,0 -98.214,-44.335 -98.214,-98.214c0,-53.879 44.335,-98.214 98.214,-98.214c53.879,0 98.214,44.335 98.214,98.214l0,0Z" style="fill:#fff;stroke:#000;stroke-width:8.33px;"/><text x="772.06px" y="475.478px" style="font-family:'SourceSansPro-Bold', 'Source Sans Pro', sans-serif;font-weight:700;font-size:83.333px;fill:#f60;">c</text></g></g></svg>