<?xml version="1.0" encoding="UTF-8" standalone="no"?><!DOCTYPE svg PUBLIC "-//W3C//DTD SVG 1.1//EN" "http://www.w3.org/Graphics/SVG/1.1/DTD/svg11.dtd"><svg width="100%" height="100%" viewBox="0 0 938 584" version="1.1" xmlns="http://www.w3.org/2000/svg" xmlns:xlink="http://www.w3.org/1999/xlink" xml:space="preserve" xmlns:serif="http://www.serif.com/" style="fill-rule:evenodd;clip-rule:evenodd;"><g id="Layer-1" serif:id="Layer 1"><path id="path5122" d="M225.744,236.584l3.337,-39.388l-26.302,29.508l22.965,9.88Z"/><path d="M217.225,224.754c-30.419,70.707 -108.859,253.03 -108.859,253.03" style="fill:none;stroke:#000;stroke-width:8.33px;"/><path id="path51221" serif:id="path5122" d="M389.617,379.735l39.52,0.842l-32.121,23.038l-7.399,-23.88Z"/><path d="M110.166,479.402c0,0 211.967,-65.672 290.315,-89.946" style="fill:none;stroke:#000;stroke-width:8.33px;"/><path id="path51222" serif:id="path5122" d="M650.028,280.412l-38.02,10.814l23.928,-31.464l14.092,20.65Z"/><path d="M824.127,146.463c0,0 -131.367,89.653 -187.34,127.852" style="fill:none;stroke:#000;stroke-width:8.33px;"/><path id="path5114" d="M431.065,244.831l19.212,34.546l-36.097,-16.11l16.885,-18.436Z"/><path d="M269.023,113.367c0,0 110.784,101.467 159.131,145.748" style="fill:none;stroke:#000;stroke-width:8.33px;"/><g><path id="path4622" d="M624.977,348.256c0,53.878 -44.336,98.214 -98.215,98.214c-53.878,0 -98.214,-44.336 -98.214,-98.214c0,-53.879 44.336,-98.215 98.214,-98.215c53.879,0 98.215,44.336 98.215,98.215l0,0Z" style="fill:#fff;stroke:#000;stroke-width:8.33px;"/><text x="501.804px" y="376.964px" style="font-family:'SourceSansPro-Bold', 'Source Sans Pro', sans-serif;font-weight:700;font-size:83.333px;fill:#f60;">b</text></g><g><path id="path4455" d="M205.201,478.501c0,53.879 -44.336,98.214 -98.214,98.214c-53.879,0 -98.215,-44.335 -98.215,-98.214c0,-53.879 44.336,-98.214 98.215,-98.214c53.878,0 98.214,44.335 98.214,98.214l0,0Z" style="fill:#fff;stroke:#000;stroke-width:8.33px;"/><text x="86.945px" y="499.168px" style="font-family:'SourceSansPro-Bold', 'Source Sans Pro', sans-serif;font-weight:700;font-size:83.333px;fill:#f60;">c</text></g><g><path id="path4016" d="M365.793,107.614c0,53.878 -44.336,98.214 -98.214,98.214c-53.879,0 -98.215,-44.336 -98.215,-98.214c0,-53.879 44.336,-98.215 98.215,-98.215c53.878,0 98.214,44.336 98.214,98.215l0,0Z" style="fill:#fff;stroke:#000;stroke-width:8.33px;"/><text x="246.329px" y="128.28px" style="font-family:'SourceSansPro-Bold', 'Source Sans Pro', sans-serif;font-weight:700;font-size:83.333px;fill:#f60;">a</text></g><g><path id="path4752" d="M926.041,142.295c0,53.878 -44.335,98.214 -98.214,98.214c-53.879,0 -98.214,-44.336 -98.214,-98.214c0,-53.879 44.335,-98.215 98.214,-98.215c53.879,0 98.214,44.336 98.214,98.215l0,0Z" style="fill:#fff;stroke:#000;stroke-width:8.33px;"/><text x="804.619px" y="169.461px" style="font-family:'SourceSansPro-Bold', 'Source Sans Pro', sans-serif;font-weight:700;font-size:83.333px;fill:#f60;">d</text></g></g></svg>