<?xml version="1.0" encoding="UTF-8" standalone="no"?>
<!DOCTYPE svg PUBLIC "-//W3C//DTD SVG 1.1//EN" "http://www.w3.org/Graphics/SVG/1.1/DTD/svg11.dtd">
<svg width="100%" height="100%" viewBox="0 0 375 470" version="1.1" xmlns="http://www.w3.org/2000/svg" xmlns:xlink="http://www.w3.org/1999/xlink" xml:space="preserve" xmlns:serif="http://www.serif.com/" style="fill-rule:evenodd;clip-rule:evenodd;">
    <g transform="matrix(1,0,0,1,-27.7827,-21.968)">
        <g transform="matrix(1,0,0,1,-27.709,51.8541)">
            <g id="path3705" transform="matrix(1,0,0,1,152.589,55.6007)">
                <path d="M82.857,59.409C82.857,72.34 72.217,82.981 59.286,82.981C46.355,82.981 35.714,72.34 35.714,59.409C35.714,46.479 46.355,35.838 59.286,35.838C72.217,35.838 82.857,46.479 82.857,59.409Z" style="fill:white;stroke:black;stroke-width:2px;"/>
            </g>
            <g transform="matrix(1,0,0,1,12.5285,87.0552)">
                <text x="192.071px" y="35.867px" style="font-family:'SourceSansPro-Bold', 'Source Sans Pro', sans-serif;font-weight:700;font-size:24px;">C</text>
            </g>
        </g>
        <g transform="matrix(1,0,0,1,-61.1004,112.08)">
            <g id="path4339" transform="matrix(1,0,0,1,250.236,55.3538)">
                <path d="M82.857,59.409C82.857,72.34 72.217,82.981 59.286,82.981C46.355,82.981 35.714,72.34 35.714,59.409C35.714,46.479 46.355,35.838 59.286,35.838C72.217,35.838 82.857,46.479 82.857,59.409Z" style="fill:white;stroke:black;stroke-width:2px;"/>
            </g>
            <g transform="matrix(1,0,0,1,109.47,86.7201)">
                <text x="192.071px" y="35.867px" style="font-family:'SourceSansPro-Bold', 'Source Sans Pro', sans-serif;font-weight:700;font-size:24px;">D</text>
            </g>
        </g>
        <g transform="matrix(1,0,0,1,-16.9989,-2)">
            <g id="path4622" transform="matrix(1,0,0,1,141.879,-9.10005)">
                <path d="M82.857,59.409C82.857,72.34 72.217,82.981 59.286,82.981C46.355,82.981 35.714,72.34 35.714,59.409C35.714,46.479 46.355,35.838 59.286,35.838C72.217,35.838 82.857,46.479 82.857,59.409Z" style="fill:white;stroke:black;stroke-width:2px;"/>
            </g>
            <g transform="matrix(1,0,0,1,2.21701,22.2663)">
                <text x="192.071px" y="35.867px" style="font-family:'SourceSansPro-Bold', 'Source Sans Pro', sans-serif;font-weight:700;font-size:24px;">A</text>
            </g>
        </g>
        <g transform="matrix(1,0,0,1,0.425735,-16.7346)">
            <g id="path4445" transform="matrix(1,0,0,1,-5.4072,132.281)">
                <path d="M82.857,59.409C82.857,72.34 72.217,82.981 59.286,82.981C46.355,82.981 35.714,72.34 35.714,59.409C35.714,46.479 46.355,35.838 59.286,35.838C72.217,35.838 82.857,46.479 82.857,59.409Z" style="fill:white;stroke:black;stroke-width:2px;"/>
            </g>
            <g transform="matrix(1,0,0,1,-145.465,163.647)">
                <text x="192.071px" y="35.867px" style="font-family:'SourceSansPro-Bold', 'Source Sans Pro', sans-serif;font-weight:700;font-size:24px;">F</text>
            </g>
        </g>
        <g transform="matrix(1,0,0,1,-78.143,40.3455)">
            <g id="path4455" transform="matrix(1,0,0,1,137.45,132.281)">
                <path d="M82.857,59.409C82.857,72.34 72.217,82.981 59.286,82.981C46.355,82.981 35.714,72.34 35.714,59.409C35.714,46.479 46.355,35.838 59.286,35.838C72.217,35.838 82.857,46.479 82.857,59.409Z" style="fill:white;stroke:black;stroke-width:2px;"/>
            </g>
            <g transform="matrix(1,0,0,1,-2.84799,163.647)">
                <text x="192.071px" y="35.867px" style="font-family:'SourceSansPro-Bold', 'Source Sans Pro', sans-serif;font-weight:700;font-size:24px;">G</text>
            </g>
        </g>
        <g transform="matrix(1,0,0,1,-1,-1)">
            <g id="path4016" transform="matrix(1,0,0,1,60.307,53.2332)">
                <path d="M82.857,59.409C82.857,72.34 72.217,82.981 59.286,82.981C46.355,82.981 35.714,72.34 35.714,59.409C35.714,46.479 46.355,35.838 59.286,35.838C72.217,35.838 82.857,46.479 82.857,59.409Z" style="fill:white;stroke:black;stroke-width:2px;"/>
            </g>
            <g transform="matrix(1,0,0,1,-80.267,84.5995)">
                <text x="192.071px" y="35.867px" style="font-family:'SourceSansPro-Bold', 'Source Sans Pro', sans-serif;font-weight:700;font-size:24px;">B</text>
            </g>
        </g>
        <g transform="matrix(1,0,0,1,-79.1719,154.172)">
            <g id="path4602" transform="matrix(1,0,0,1,268.307,132.351)">
                <path d="M82.857,59.409C82.857,72.34 72.217,82.981 59.286,82.981C46.355,82.981 35.714,72.34 35.714,59.409C35.714,46.479 46.355,35.838 59.286,35.838C72.217,35.838 82.857,46.479 82.857,59.409Z" style="fill:white;stroke:black;stroke-width:2px;"/>
            </g>
            <g transform="matrix(1,0,0,1,127.152,163.647)">
                <text x="192.071px" y="35.867px" style="font-family:'SourceSansPro-Bold', 'Source Sans Pro', sans-serif;font-weight:700;font-size:24px;">H</text>
            </g>
        </g>
        <g transform="matrix(1,0,0,1,-96.4016,272.995)">
            <g id="path4752" transform="matrix(1,0,0,1,411.164,132.351)">
                <path d="M82.857,59.409C82.857,72.34 72.217,82.981 59.286,82.981C46.355,82.981 35.714,72.34 35.714,59.409C35.714,46.479 46.355,35.838 59.286,35.838C72.217,35.838 82.857,46.479 82.857,59.409Z" style="fill:white;stroke:black;stroke-width:2px;"/>
            </g>
            <g transform="matrix(1,0,0,1,271.35,163.787)">
                <text x="192.071px" y="35.867px" style="font-family:'SourceSansPro-Bold', 'Source Sans Pro', sans-serif;font-weight:700;font-size:24px;">J</text>
            </g>
        </g>
        <g transform="matrix(1,0,0,1,-87.9885,172.792)">
            <g id="path4863" transform="matrix(1,0,0,1,340.748,54.2332)">
                <path d="M82.857,59.409C82.857,72.34 72.217,82.981 59.286,82.981C46.355,82.981 35.714,72.34 35.714,59.409C35.714,46.479 46.355,35.838 59.286,35.838C72.217,35.838 82.857,46.479 82.857,59.409Z" style="fill:white;stroke:black;stroke-width:2px;"/>
            </g>
            <g transform="matrix(1,0,0,1,201.47,86.7201)">
                <text x="192.071px" y="35.867px" style="font-family:'SourceSansPro-Bold', 'Source Sans Pro', sans-serif;font-weight:700;font-size:24px;">E</text>
            </g>
        </g>
        <g transform="matrix(1,0,0,1,-87.9885,213.714)">
            <g id="path43391" serif:id="path4339" transform="matrix(1,0,0,1,340.748,132.351)">
                <path d="M82.857,59.409C82.857,72.34 72.217,82.981 59.286,82.981C46.355,82.981 35.714,72.34 35.714,59.409C35.714,46.479 46.355,35.838 59.286,35.838C72.217,35.838 82.857,46.479 82.857,59.409Z" style="fill:white;stroke:black;stroke-width:2px;"/>
            </g>
            <g transform="matrix(1,0,0,1,204.35,163.787)">
                <text x="192.071px" y="35.867px" style="font-family:'SourceSansPro-Bold', 'Source Sans Pro', sans-serif;font-weight:700;font-size:24px;">I</text>
            </g>
        </g>
        <g transform="matrix(0.999999,0,0,0.999999,-89.0289,-40.4975)">
            <g id="g992">
                <g id="path988" transform="matrix(1,-0,-0,1,116.812,62.4656)">
                    <g id="g990">
                        <path id="path9881" serif:id="path988" d="M119.692,65.265L109.976,67.881L113.713,58.538L119.692,65.265Z" style="fill:rgb(255,102,0);"/>
                        <path id="path9882" serif:id="path988" d="M133.867,46.644C133.867,46.644 122.403,56.835 115.357,63.098" style="fill:none;stroke:rgb(255,102,0);stroke-width:3px;stroke-linecap:round;stroke-linejoin:round;stroke-miterlimit:1.5;"/>
                    </g>
                </g>
            </g>
        </g>
        <g transform="matrix(0.999999,0,0,0.999999,-155.029,23.5025)">
            <g id="g9921" serif:id="g992">
                <g id="path9883" serif:id="path988" transform="matrix(1,-0,-0,1,182.812,-1.53449)">
                    <g id="g9901" serif:id="g990">
                        <path id="path9884" serif:id="path988" d="M53.692,129.265L43.976,131.881L47.713,122.538L53.692,129.265Z" style="fill:rgb(255,102,0);"/>
                        <path id="path9885" serif:id="path988" d="M67.867,110.644C67.867,110.644 56.403,120.835 49.357,127.098" style="fill:none;stroke:rgb(255,102,0);stroke-width:3px;stroke-linecap:round;stroke-linejoin:round;stroke-miterlimit:1.5;"/>
                    </g>
                </g>
            </g>
        </g>
        <g transform="matrix(0.999999,0,0,0.999999,42.1482,197.766)">
            <g id="g9922" serif:id="g992">
                <g id="path9886" serif:id="path988" transform="matrix(1,-0,-0,1,-14.3655,-175.798)">
                    <g id="g9902" serif:id="g990">
                        <path id="path9887" serif:id="path988" d="M250.869,303.528L241.153,306.144L244.89,296.802L250.869,303.528Z" style="fill:rgb(255,102,0);"/>
                        <path id="path9888" serif:id="path988" d="M265.044,284.908C265.044,284.908 253.58,295.098 246.534,301.361" style="fill:none;stroke:rgb(255,102,0);stroke-width:3px;stroke-linecap:round;stroke-linejoin:round;stroke-miterlimit:1.5;"/>
                    </g>
                </g>
            </g>
        </g>
        <g id="path9889" serif:id="path988" transform="matrix(-0.999999,0,0,0.999999,329.059,81.3771)">
            <g transform="matrix(-1,0,0,1,301.276,-59.4091)">
                <path d="M70.752,180.413L74.489,189.755L64.772,187.14L70.752,180.413Z" style="fill:rgb(255,102,0);"/>
                <path d="M50.597,168.519C50.597,168.519 62.062,178.709 69.107,184.972" style="fill:none;stroke:rgb(255,102,0);stroke-width:3px;stroke-linejoin:round;stroke-miterlimit:1.5;stroke-dasharray:3,3;"/>
            </g>
        </g>
        <g id="path98810" serif:id="path988" transform="matrix(-0.999999,0,0,0.999999,390.365,18.9819)">
            <g transform="matrix(-1,0,0,1,362.583,2.98607)">
                <path d="M132.058,118.018L135.795,127.36L126.079,124.745L132.058,118.018Z" style="fill:rgb(255,102,0);"/>
                <path d="M111.903,106.124C111.903,106.124 123.368,116.314 130.413,122.577" style="fill:none;stroke:rgb(255,102,0);stroke-width:3px;stroke-linejoin:round;stroke-miterlimit:1.5;stroke-dasharray:3,3;"/>
            </g>
        </g>
        <g id="path98811" serif:id="path988" transform="matrix(-0.999999,0,0,0.999999,456.207,76.3846)">
            <g transform="matrix(-1,0,0,1,428.425,-54.4167)">
                <path d="M197.9,175.42L201.638,184.763L191.921,182.147L197.9,175.42Z" style="fill:rgb(255,102,0);"/>
                <path d="M177.746,163.527C177.746,163.527 189.21,173.717 196.256,179.98" style="fill:none;stroke:rgb(255,102,0);stroke-width:3px;stroke-linejoin:round;stroke-miterlimit:1.5;stroke-dasharray:3,3;"/>
            </g>
        </g>
        <g id="path98812" serif:id="path988" transform="matrix(-0.999999,0,0,0.999999,519.66,137.423)">
            <g transform="matrix(-1,0,0,1,491.878,-115.455)">
                <path d="M261.353,236.459L265.091,245.802L255.374,243.186L261.353,236.459Z" style="fill:rgb(255,102,0);"/>
                <path d="M241.199,224.565C241.199,224.565 252.663,234.756 259.709,241.018" style="fill:none;stroke:rgb(255,102,0);stroke-width:3px;stroke-linejoin:round;stroke-miterlimit:1.5;stroke-dasharray:3,3;"/>
            </g>
        </g>
        <g id="path98813" serif:id="path988" transform="matrix(-0.999999,0,0,0.999999,517.714,257.252)">
            <g transform="matrix(-1,0,0,1,489.932,-235.285)">
                <path d="M259.407,356.288L263.144,365.631L253.427,363.015L259.407,356.288Z" style="fill:rgb(255,102,0);"/>
                <path d="M239.252,344.394C239.252,344.394 250.717,354.585 257.762,360.847" style="fill:none;stroke:rgb(255,102,0);stroke-width:3px;stroke-linejoin:round;stroke-miterlimit:1.5;stroke-dasharray:3,3;"/>
            </g>
        </g>
        <g id="path98814" serif:id="path988" transform="matrix(-0.999999,0,0,0.999999,582.019,315.635)">
            <g transform="matrix(-1,0,0,1,554.237,-293.667)">
                <path d="M323.712,414.671L327.45,424.013L317.733,421.398L323.712,414.671Z" style="fill:rgb(255,102,0);"/>
                <path d="M303.558,402.777C303.558,402.777 315.022,412.967 322.068,419.23" style="fill:none;stroke:rgb(255,102,0);stroke-width:3px;stroke-linejoin:round;stroke-miterlimit:1.5;stroke-dasharray:3,3;"/>
            </g>
        </g>
        <g id="g9923" serif:id="g992">
        </g>
    </g>
</svg>
