<?xml version="1.0" encoding="UTF-8" standalone="no"?>
<!DOCTYPE svg PUBLIC "-//W3C//DTD SVG 1.1//EN" "http://www.w3.org/Graphics/SVG/1.1/DTD/svg11.dtd">
<svg width="100%" height="100%" viewBox="0 0 470 200" version="1.1" xmlns="http://www.w3.org/2000/svg" xmlns:xlink="http://www.w3.org/1999/xlink" xml:space="preserve" xmlns:serif="http://www.serif.com/" style="fill-rule:evenodd;clip-rule:evenodd;">
    <g transform="matrix(1,0,0,1,-27.7827,-21.968)">
        <g transform="matrix(1.7639,0,0,1,212.671,-133.608)">
            <path d="M106.221,251.841L106.221,320.619" style="fill:none;stroke:black;stroke-width:1.39px;"/>
        </g>
        <g id="path5112" transform="matrix(1,0,0,1,18.9595,-7.67145)">
            <path d="M241.429,57.762L106.857,122.047L178.286,200.619" style="fill:none;stroke:black;stroke-width:2px;"/>
        </g>
        <g transform="matrix(1,0,0,1,-21.0405,-37.6715)">
            <path d="M142.857,152.047L71.429,230.619" style="fill:none;stroke:black;stroke-width:2px;"/>
        </g>
        <g transform="matrix(-1.7639,0,0,1,385.286,-186.783)">
            <path d="M71.429,240.619L107.143,320.619" style="fill:none;stroke:black;stroke-width:1.39px;"/>
        </g>
        <g transform="matrix(1.7639,0,0,1,134.303,-186.783)">
            <path d="M71.429,240.619L107.143,320.619" style="fill:none;stroke:black;stroke-width:1.39px;"/>
        </g>
        <g id="path5120" transform="matrix(1,0,0,1,18.9595,-7.67145)">
            <path d="M242.857,56.333L380,120.619L311.429,199.19" style="fill:none;stroke:black;stroke-width:2px;"/>
        </g>
        <g transform="matrix(1,0,0,1,18.9595,-37.6715)">
            <path d="M378.571,152.047L452.857,229.19" style="fill:none;stroke:black;stroke-width:2px;"/>
        </g>
        <g id="path3705" transform="matrix(1,0,0,1,152.589,55.6007)">
            <path d="M82.857,59.409C82.857,72.34 72.217,82.981 59.286,82.981C46.355,82.981 35.714,72.34 35.714,59.409C35.714,46.479 46.355,35.838 59.286,35.838C72.217,35.838 82.857,46.479 82.857,59.409Z" style="fill:white;stroke:black;stroke-width:2px;"/>
        </g>
        <g id="path4339" transform="matrix(1,0,0,1,250.236,55.3538)">
            <path d="M82.857,59.409C82.857,72.34 72.217,82.981 59.286,82.981C46.355,82.981 35.714,72.34 35.714,59.409C35.714,46.479 46.355,35.838 59.286,35.838C72.217,35.838 82.857,46.479 82.857,59.409Z" style="fill:white;stroke:black;stroke-width:2px;"/>
        </g>
        <g id="path4622" transform="matrix(1,0,0,1,201.879,-9.10005)">
            <path d="M82.857,59.409C82.857,72.34 72.217,82.981 59.286,82.981C46.355,82.981 35.714,72.34 35.714,59.409C35.714,46.479 46.355,35.838 59.286,35.838C72.217,35.838 82.857,46.479 82.857,59.409Z" style="fill:white;stroke:black;stroke-width:2px;"/>
        </g>
        <g id="path4445" transform="matrix(1,0,0,1,-5.4072,132.281)">
            <path d="M82.857,59.409C82.857,72.34 72.217,82.981 59.286,82.981C46.355,82.981 35.714,72.34 35.714,59.409C35.714,46.479 46.355,35.838 59.286,35.838C72.217,35.838 82.857,46.479 82.857,59.409Z" style="fill:white;stroke:black;stroke-width:2px;"/>
        </g>
        <g id="path4455" transform="matrix(1,0,0,1,137.45,132.281)">
            <path d="M82.857,59.409C82.857,72.34 72.217,82.981 59.286,82.981C46.355,82.981 35.714,72.34 35.714,59.409C35.714,46.479 46.355,35.838 59.286,35.838C72.217,35.838 82.857,46.479 82.857,59.409Z" style="fill:white;stroke:black;stroke-width:2px;"/>
        </g>
        <g id="path4016" transform="matrix(1,0,0,1,65.307,54.2332)">
            <path d="M82.857,59.409C82.857,72.34 72.217,82.981 59.286,82.981C46.355,82.981 35.714,72.34 35.714,59.409C35.714,46.479 46.355,35.838 59.286,35.838C72.217,35.838 82.857,46.479 82.857,59.409Z" style="fill:white;stroke:black;stroke-width:2px;"/>
        </g>
        <g id="path4602" transform="matrix(1,0,0,1,268.307,132.351)">
            <path d="M82.857,59.409C82.857,72.34 72.217,82.981 59.286,82.981C46.355,82.981 35.714,72.34 35.714,59.409C35.714,46.479 46.355,35.838 59.286,35.838C72.217,35.838 82.857,46.479 82.857,59.409Z" style="fill:white;stroke:black;stroke-width:2px;"/>
        </g>
        <g id="path4752" transform="matrix(1,0,0,1,411.164,132.351)">
            <path d="M82.857,59.409C82.857,72.34 72.217,82.981 59.286,82.981C46.355,82.981 35.714,72.34 35.714,59.409C35.714,46.479 46.355,35.838 59.286,35.838C72.217,35.838 82.857,46.479 82.857,59.409Z" style="fill:white;stroke:black;stroke-width:2px;"/>
        </g>
        <g id="path4863" transform="matrix(1,0,0,1,340.748,54.2332)">
            <path d="M82.857,59.409C82.857,72.34 72.217,82.981 59.286,82.981C46.355,82.981 35.714,72.34 35.714,59.409C35.714,46.479 46.355,35.838 59.286,35.838C72.217,35.838 82.857,46.479 82.857,59.409Z" style="fill:white;stroke:black;stroke-width:2px;"/>
        </g>
        <g transform="matrix(1,0,0,1,62.217,22.2663)">
            <text x="192.071px" y="35.867px" style="font-family:'SourceSansPro-Bold', 'Source Sans Pro', sans-serif;font-weight:700;font-size:24px;">A</text>
        </g>
        <g transform="matrix(1,0,0,1,-75.267,85.5995)">
            <text x="192.071px" y="35.867px" style="font-family:'SourceSansPro-Bold', 'Source Sans Pro', sans-serif;font-weight:700;font-size:24px;">B</text>
        </g>
        <g transform="matrix(1,0,0,1,12.5285,87.0552)">
            <text x="192.071px" y="35.867px" style="font-family:'SourceSansPro-Bold', 'Source Sans Pro', sans-serif;font-weight:700;font-size:24px;">C</text>
        </g>
        <g transform="matrix(1,0,0,1,-145.465,163.647)">
            <text x="192.071px" y="35.867px" style="font-family:'SourceSansPro-Bold', 'Source Sans Pro', sans-serif;font-weight:700;font-size:24px;">F</text>
        </g>
        <g transform="matrix(1,0,0,1,-2.84799,163.647)">
            <text x="192.071px" y="35.867px" style="font-family:'SourceSansPro-Bold', 'Source Sans Pro', sans-serif;font-weight:700;font-size:24px;">G</text>
        </g>
        <g transform="matrix(1,0,0,1,127.152,163.647)">
            <text x="192.071px" y="35.867px" style="font-family:'SourceSansPro-Bold', 'Source Sans Pro', sans-serif;font-weight:700;font-size:24px;">H</text>
        </g>
        <g transform="matrix(1,0,0,1,109.47,86.7201)">
            <text x="192.071px" y="35.867px" style="font-family:'SourceSansPro-Bold', 'Source Sans Pro', sans-serif;font-weight:700;font-size:24px;">D</text>
        </g>
        <g id="path43391" serif:id="path4339" transform="matrix(1,0,0,1,340.748,132.351)">
            <path d="M82.857,59.409C82.857,72.34 72.217,82.981 59.286,82.981C46.355,82.981 35.714,72.34 35.714,59.409C35.714,46.479 46.355,35.838 59.286,35.838C72.217,35.838 82.857,46.479 82.857,59.409Z" style="fill:white;stroke:black;stroke-width:2px;"/>
        </g>
        <g transform="matrix(1,0,0,1,204.35,163.787)">
            <text x="192.071px" y="35.867px" style="font-family:'SourceSansPro-Bold', 'Source Sans Pro', sans-serif;font-weight:700;font-size:24px;">I</text>
        </g>
        <g transform="matrix(1,0,0,1,271.35,163.787)">
            <text x="192.071px" y="35.867px" style="font-family:'SourceSansPro-Bold', 'Source Sans Pro', sans-serif;font-weight:700;font-size:24px;">J</text>
        </g>
        <g transform="matrix(1,0,0,1,201.47,86.7201)">
            <text x="192.071px" y="35.867px" style="font-family:'SourceSansPro-Bold', 'Source Sans Pro', sans-serif;font-weight:700;font-size:24px;">E</text>
        </g>
        <g transform="matrix(0.999999,0,0,0.999999,-81.0289,-39.4975)">
            <g id="g992">
                <g id="path988" transform="matrix(1,-0,-0,1,108.812,61.4656)">
                    <g id="g990">
                        <path id="path9881" serif:id="path988" d="M128.028,69.334L117.976,68.881L124.369,61.111L128.028,69.334Z" style="fill:rgb(255,102,0);"/>
                        <path id="path9882" serif:id="path988" d="M203.426,30.86C203.426,30.86 144.577,57.045 124.554,65.954" style="fill:none;stroke:rgb(255,102,0);stroke-width:3px;stroke-linecap:round;stroke-linejoin:round;stroke-miterlimit:1.5;"/>
                    </g>
                </g>
            </g>
        </g>
        <g transform="matrix(0.999999,0,0,0.999999,-212.366,31.1661)">
            <g id="g9921" serif:id="g992">
                <g id="path9883" serif:id="path988" transform="matrix(1,-0,-0,1,240.149,-9.1981)">
                    <g id="g9901" serif:id="g990">
                        <path id="path9884" serif:id="path988" d="M43.276,137.614L33.783,140.952L36.808,131.355L43.276,137.614Z" style="fill:rgb(255,102,0);"/>
                        <path id="path9885" serif:id="path988" d="M69.273,104.282C69.273,104.282 48.572,125.671 38.79,135.778" style="fill:none;stroke:rgb(255,102,0);stroke-width:3px;stroke-linecap:round;stroke-linejoin:round;stroke-miterlimit:1.5;"/>
                    </g>
                </g>
            </g>
        </g>
        <g transform="matrix(0.999999,0,0,0.999999,63.5284,33.7711)">
            <g id="g9922" serif:id="g992">
                <g id="path9886" serif:id="path988" transform="matrix(1,-0,-0,1,-35.7457,-11.8031)">
                    <g id="g9902" serif:id="g990">
                        <path id="path9887" serif:id="path988" d="M319.074,139.96L309.677,143.557L312.438,133.881L319.074,139.96Z" style="fill:rgb(255,102,0);"/>
                        <path id="path9888" serif:id="path988" d="M344.912,105.093C344.912,105.093 324.207,127.695 314.54,138.248" style="fill:none;stroke:rgb(255,102,0);stroke-width:3px;stroke-linecap:round;stroke-linejoin:round;stroke-miterlimit:1.5;"/>
                    </g>
                </g>
            </g>
        </g>
        <g transform="matrix(0.999999,0,0,0.999999,-178.005,72.7049)">
            <g id="g9923" serif:id="g992">
                <g id="path9889" serif:id="path988" transform="matrix(1,-0,-0,1,205.788,-50.737)">
                    <g id="g9903" serif:id="g990">
                        <path id="path98810" serif:id="path988" d="M129.572,167.608L138.572,172.108L129.572,176.608L129.572,167.608Z" style="fill:rgb(255,102,0);"/>
                        <path id="path98811" serif:id="path988" d="M57.278,172.108L131.372,172.108" style="fill:none;stroke:rgb(255,102,0);stroke-width:3px;stroke-linejoin:round;stroke-miterlimit:1.5;stroke-dasharray:3,3;"/>
                    </g>
                </g>
            </g>
        </g>
        <g id="path98812" serif:id="path988" transform="matrix(0.999999,0,0,0.999999,-108.341,-4.87644)">
            <g transform="matrix(1,-0,-0,1,136.124,26.8445)">
                <path d="M145.296,90.027L154.296,94.527L145.296,99.027L145.296,90.027Z" style="fill:rgb(255,102,0);"/>
                <path d="M126.941,94.527L147.096,94.527" style="fill:none;stroke:rgb(255,102,0);stroke-width:3px;stroke-linejoin:round;stroke-miterlimit:1.5;stroke-dasharray:3,3;"/>
            </g>
        </g>
        <g id="path98813" serif:id="path988" transform="matrix(0.999999,0,0,0.999999,-9.34107,-4.87644)">
            <g transform="matrix(1,-0,-0,1,37.1238,26.8445)">
                <path d="M244.296,90.027L253.296,94.527L244.296,99.027L244.296,90.027Z" style="fill:rgb(255,102,0);"/>
                <path d="M214.441,94.527L246.096,94.527" style="fill:none;stroke:rgb(255,102,0);stroke-width:3px;stroke-linejoin:round;stroke-miterlimit:1.5;stroke-dasharray:3,3;"/>
            </g>
        </g>
        <g id="path98814" serif:id="path988" transform="matrix(0.999999,0,0,0.999999,78.6589,-4.87644)">
            <g transform="matrix(1,-0,-0,1,-50.8763,26.8445)">
                <path d="M332.296,90.027L341.296,94.527L332.296,99.027L332.296,90.027Z" style="fill:rgb(255,102,0);"/>
                <path d="M313.941,94.527L334.096,94.527" style="fill:none;stroke:rgb(255,102,0);stroke-width:3px;stroke-linejoin:round;stroke-miterlimit:1.5;stroke-dasharray:3,3;"/>
            </g>
        </g>
        <g id="path98815" serif:id="path988" transform="matrix(0.999999,0,0,0.999999,165.885,71.1363)">
            <g transform="matrix(1,-0,-0,1,-138.103,-49.1683)">
                <path d="M407.518,166.039L416.518,170.539L407.518,175.039L407.518,166.039Z" style="fill:rgb(255,102,0);"/>
                <path d="M401.168,170.539L409.318,170.539" style="fill:none;stroke:rgb(255,102,0);stroke-width:3px;stroke-linejoin:round;stroke-miterlimit:1.5;stroke-dasharray:3,3;"/>
            </g>
        </g>
        <g id="path98816" serif:id="path988" transform="matrix(0.999999,0,0,0.999999,92.885,71.1363)">
            <g transform="matrix(1,-0,-0,1,-65.1024,-49.1683)">
                <path d="M334.518,166.039L343.518,170.539L334.518,175.039L334.518,166.039Z" style="fill:rgb(255,102,0);"/>
                <path d="M328.168,170.539L336.318,170.539" style="fill:none;stroke:rgb(255,102,0);stroke-width:3px;stroke-linejoin:round;stroke-miterlimit:1.5;stroke-dasharray:3,3;"/>
            </g>
        </g>
    </g>
</svg>
