<?xml version="1.0" encoding="UTF-8" standalone="no"?>
<!DOCTYPE svg PUBLIC "-//W3C//DTD SVG 1.1//EN" "http://www.w3.org/Graphics/SVG/1.1/DTD/svg11.dtd">
<svg width="100%" height="100%" viewBox="0 0 470 200" version="1.1" xmlns="http://www.w3.org/2000/svg" xmlns:xlink="http://www.w3.org/1999/xlink" xml:space="preserve" xmlns:serif="http://www.serif.com/" style="fill-rule:evenodd;clip-rule:evenodd;">
    <g transform="matrix(1,0,0,1,-27.7827,-21.968)">
        <g transform="matrix(1.7639,0,0,1,212.671,-133.608)">
            <path d="M106.221,251.841L106.221,320.619" style="fill:none;stroke:black;stroke-width:1.39px;"/>
        </g>
        <g id="path5112" transform="matrix(1,0,0,1,18.9595,-7.67145)">
            <path d="M241.429,57.762L106.857,122.047L178.286,200.619" style="fill:none;stroke:black;stroke-width:2px;"/>
        </g>
        <g transform="matrix(1,0,0,1,-21.0405,-37.6715)">
            <path d="M142.857,152.047L71.429,230.619" style="fill:none;stroke:black;stroke-width:2px;"/>
        </g>
        <g transform="matrix(-1.7639,0,0,1,385.286,-186.783)">
            <path d="M71.429,240.619L107.143,320.619" style="fill:none;stroke:black;stroke-width:1.39px;"/>
        </g>
        <g transform="matrix(1.7639,0,0,1,134.303,-186.783)">
            <path d="M71.429,240.619L107.143,320.619" style="fill:none;stroke:black;stroke-width:1.39px;"/>
        </g>
        <g id="path5120" transform="matrix(1,0,0,1,18.9595,-7.67145)">
            <path d="M242.857,56.333L380,120.619L311.429,199.19" style="fill:none;stroke:black;stroke-width:2px;"/>
        </g>
        <g transform="matrix(1,0,0,1,18.9595,-37.6715)">
            <path d="M378.571,152.047L452.857,229.19" style="fill:none;stroke:black;stroke-width:2px;"/>
        </g>
        <g id="path3705" transform="matrix(1,0,0,1,152.589,55.6007)">
            <path d="M82.857,59.409C82.857,72.34 72.217,82.981 59.286,82.981C46.355,82.981 35.714,72.34 35.714,59.409C35.714,46.479 46.355,35.838 59.286,35.838C72.217,35.838 82.857,46.479 82.857,59.409Z" style="fill:white;stroke:black;stroke-width:2px;"/>
        </g>
        <g id="path4339" transform="matrix(1,0,0,1,250.236,55.3538)">
            <path d="M82.857,59.409C82.857,72.34 72.217,82.981 59.286,82.981C46.355,82.981 35.714,72.34 35.714,59.409C35.714,46.479 46.355,35.838 59.286,35.838C72.217,35.838 82.857,46.479 82.857,59.409Z" style="fill:white;stroke:black;stroke-width:2px;"/>
        </g>
        <g id="path4622" transform="matrix(1,0,0,1,201.879,-9.10005)">
            <path d="M82.857,59.409C82.857,72.34 72.217,82.981 59.286,82.981C46.355,82.981 35.714,72.34 35.714,59.409C35.714,46.479 46.355,35.838 59.286,35.838C72.217,35.838 82.857,46.479 82.857,59.409Z" style="fill:white;stroke:black;stroke-width:2px;"/>
        </g>
        <g id="path4445" transform="matrix(1,0,0,1,-5.4072,132.281)">
            <path d="M82.857,59.409C82.857,72.34 72.217,82.981 59.286,82.981C46.355,82.981 35.714,72.34 35.714,59.409C35.714,46.479 46.355,35.838 59.286,35.838C72.217,35.838 82.857,46.479 82.857,59.409Z" style="fill:white;stroke:black;stroke-width:2px;"/>
        </g>
        <g id="path4455" transform="matrix(1,0,0,1,137.45,132.281)">
            <path d="M82.857,59.409C82.857,72.34 72.217,82.981 59.286,82.981C46.355,82.981 35.714,72.34 35.714,59.409C35.714,46.479 46.355,35.838 59.286,35.838C72.217,35.838 82.857,46.479 82.857,59.409Z" style="fill:white;stroke:black;stroke-width:2px;"/>
        </g>
        <g id="path4016" transform="matrix(1,0,0,1,65.307,54.2332)">
            <path d="M82.857,59.409C82.857,72.34 72.217,82.981 59.286,82.981C46.355,82.981 35.714,72.34 35.714,59.409C35.714,46.479 46.355,35.838 59.286,35.838C72.217,35.838 82.857,46.479 82.857,59.409Z" style="fill:white;stroke:black;stroke-width:2px;"/>
        </g>
        <g id="path4602" transform="matrix(1,0,0,1,268.307,132.351)">
            <path d="M82.857,59.409C82.857,72.34 72.217,82.981 59.286,82.981C46.355,82.981 35.714,72.34 35.714,59.409C35.714,46.479 46.355,35.838 59.286,35.838C72.217,35.838 82.857,46.479 82.857,59.409Z" style="fill:white;stroke:black;stroke-width:2px;"/>
        </g>
        <g id="path4752" transform="matrix(1,0,0,1,411.164,132.351)">
            <path d="M82.857,59.409C82.857,72.34 72.217,82.981 59.286,82.981C46.355,82.981 35.714,72.34 35.714,59.409C35.714,46.479 46.355,35.838 59.286,35.838C72.217,35.838 82.857,46.479 82.857,59.409Z" style="fill:white;stroke:black;stroke-width:2px;"/>
        </g>
        <g id="path4863" transform="matrix(1,0,0,1,340.748,54.2332)">
            <path d="M82.857,59.409C82.857,72.34 72.217,82.981 59.286,82.981C46.355,82.981 35.714,72.34 35.714,59.409C35.714,46.479 46.355,35.838 59.286,35.838C72.217,35.838 82.857,46.479 82.857,59.409Z" style="fill:white;stroke:black;stroke-width:2px;"/>
        </g>
        <g transform="matrix(1,0,0,1,62.217,22.2663)">
            <text x="192.071px" y="35.867px" style="font-family:'SourceSansPro-Bold', 'Source Sans Pro', sans-serif;font-weight:700;font-size:24px;">A</text>
        </g>
        <g transform="matrix(1,0,0,1,-75.267,85.5995)">
            <text x="192.071px" y="35.867px" style="font-family:'SourceSansPro-Bold', 'Source Sans Pro', sans-serif;font-weight:700;font-size:24px;">B</text>
        </g>
        <g transform="matrix(1,0,0,1,12.5285,87.0552)">
            <text x="192.071px" y="35.867px" style="font-family:'SourceSansPro-Bold', 'Source Sans Pro', sans-serif;font-weight:700;font-size:24px;">C</text>
        </g>
        <g transform="matrix(1,0,0,1,-145.465,163.647)">
            <text x="192.071px" y="35.867px" style="font-family:'SourceSansPro-Bold', 'Source Sans Pro', sans-serif;font-weight:700;font-size:24px;">F</text>
        </g>
        <g transform="matrix(1,0,0,1,-2.84799,163.647)">
            <text x="192.071px" y="35.867px" style="font-family:'SourceSansPro-Bold', 'Source Sans Pro', sans-serif;font-weight:700;font-size:24px;">G</text>
        </g>
        <g transform="matrix(1,0,0,1,127.152,163.647)">
            <text x="192.071px" y="35.867px" style="font-family:'SourceSansPro-Bold', 'Source Sans Pro', sans-serif;font-weight:700;font-size:24px;">H</text>
        </g>
        <g transform="matrix(1,0,0,1,109.47,86.7201)">
            <text x="192.071px" y="35.867px" style="font-family:'SourceSansPro-Bold', 'Source Sans Pro', sans-serif;font-weight:700;font-size:24px;">D</text>
        </g>
        <g id="path43391" serif:id="path4339" transform="matrix(1,0,0,1,340.748,132.351)">
            <path d="M82.857,59.409C82.857,72.34 72.217,82.981 59.286,82.981C46.355,82.981 35.714,72.34 35.714,59.409C35.714,46.479 46.355,35.838 59.286,35.838C72.217,35.838 82.857,46.479 82.857,59.409Z" style="fill:white;stroke:black;stroke-width:2px;"/>
        </g>
        <g transform="matrix(1,0,0,1,204.35,163.787)">
            <text x="192.071px" y="35.867px" style="font-family:'SourceSansPro-Bold', 'Source Sans Pro', sans-serif;font-weight:700;font-size:24px;">I</text>
        </g>
        <g transform="matrix(1,0,0,1,271.35,163.787)">
            <text x="192.071px" y="35.867px" style="font-family:'SourceSansPro-Bold', 'Source Sans Pro', sans-serif;font-weight:700;font-size:24px;">J</text>
        </g>
        <g transform="matrix(1,0,0,1,201.47,86.7201)">
            <text x="192.071px" y="35.867px" style="font-family:'SourceSansPro-Bold', 'Source Sans Pro', sans-serif;font-weight:700;font-size:24px;">E</text>
        </g>
    </g>
</svg>
