<?xml version="1.0" encoding="UTF-8" standalone="no"?><!DOCTYPE svg PUBLIC "-//W3C//DTD SVG 1.1//EN" "http://www.w3.org/Graphics/SVG/1.1/DTD/svg11.dtd"><svg width="100%" height="100%" viewBox="0 0 575 800" version="1.1" xmlns="http://www.w3.org/2000/svg" xmlns:xlink="http://www.w3.org/1999/xlink" xml:space="preserve" xmlns:serif="http://www.serif.com/" style="fill-rule:evenodd;clip-rule:evenodd;"><g id="graph0"><g id="node2"><ellipse cx="200.246" cy="54.197" rx="47.815" ry="45.864" style="fill:none;stroke:#000;stroke-width:3.84px;"/><text x="177.291px" y="68.745px" style="font-family:'SourceSansPro-Bold', 'Source Sans Pro', sans-serif;font-weight:700;font-size:45.818px;fill:#ff6400;">x1</text></g><g><ellipse cx="283.493" cy="292.424" rx="47.815" ry="45.864" style="fill:none;stroke:#000;stroke-width:3.84px;"/><text x="260.309px" y="307.247px" style="font-family:'SourceSansPro-Bold', 'Source Sans Pro', sans-serif;font-weight:700;font-size:45.818px;fill:#ff6400;">x2</text></g><g id="edge6"><path d="M265.722,225.774l-0.672,19.753l-11.314,-16.205l11.986,-3.548Z" style="fill-rule:nonzero;"/><path d="M216.303,95.803c10.196,30.589 31.79,93.591 44.49,135.341" style="fill:none;fill-rule:nonzero;stroke:#000;stroke-width:4.17px;stroke-dasharray:8.33,8.33,0,0;"/><text x="253.21px" y="178.848px" style="font-family:'SourceSansPro-Bold', 'Source Sans Pro', sans-serif;font-weight:700;font-size:22.909px;">0</text></g><g><g id="node5"><text x="77.771px" y="306.119px" style="font-family:'SourceSansPro-Bold', 'Source Sans Pro', sans-serif;font-weight:700;font-size:45.818px;fill:#ff6400;">x2</text></g><ellipse cx="100.955" cy="291.297" rx="47.815" ry="45.864" style="fill:none;stroke:#000;stroke-width:3.84px;"/></g><g id="edge8"><path d="M132.582,230.206l-13.099,14.799l1.6,-19.699l11.499,4.9Z" style="fill-rule:nonzero;"/><path d="M181.939,95.803c-12.803,30.728 -38.91,93.747 -56.576,135.403" style="fill:none;fill-rule:nonzero;stroke:#000;stroke-width:4.17px;"/><text x="163.134px" y="178.848px" style="font-family:'SourceSansPro-Bold', 'Source Sans Pro', sans-serif;font-weight:700;font-size:22.909px;">1</text></g><g><ellipse cx="256.503" cy="534.129" rx="47.815" ry="45.864" style="fill:none;stroke:#000;stroke-width:3.84px;"/><text x="233.434px" y="548.676px" style="font-family:'SourceSansPro-Bold', 'Source Sans Pro', sans-serif;font-weight:700;font-size:45.818px;fill:#ff6400;">x3</text></g><g><ellipse cx="429.269" cy="532.208" rx="47.815" ry="45.864" style="fill:none;stroke:#000;stroke-width:3.84px;"/><text x="406.199px" y="546.755px" style="font-family:'SourceSansPro-Bold', 'Source Sans Pro', sans-serif;font-weight:700;font-size:45.818px;fill:#ff6400;">x3</text></g><g id="edge10"><path d="M270.976,467.074l-8.74,17.727l-3.644,-19.426l12.384,1.699Z" style="fill-rule:nonzero;"/><path d="M276.439,339.212c-2.522,27.745 -7.177,90.679 -12.164,130.728" style="fill:none;fill-rule:nonzero;stroke:#000;stroke-width:4.17px;stroke-dasharray:8.33,8.33,0,0;"/><text x="278.982px" y="419.394px" style="font-family:'SourceSansPro-Bold', 'Source Sans Pro', sans-serif;font-weight:700;font-size:22.909px;">0</text></g><g id="edge12"><path d="M401.422,469.479l4.4,19.269l-15.081,-12.775l10.681,-6.494Z" style="fill-rule:nonzero;"/><path d="M307.939,333.485c20.77,33.751 63.151,98.616 90.091,142.445" style="fill:none;fill-rule:nonzero;stroke:#000;stroke-width:4.17px;"/><text x="373.482px" y="419.394px" style="font-family:'SourceSansPro-Bold', 'Source Sans Pro', sans-serif;font-weight:700;font-size:22.909px;">1</text></g><g id="edge16"><path d="M448.252,737.392l17.379,9.414l-19.551,2.896l2.172,-12.31Z" style="fill-rule:nonzero;"/><path d="M101.758,339.212c-2.864,60.136 -20.173,154.913 35.296,241.594c51.767,80.898 218.586,144.826 313.805,163.393" style="fill:none;fill-rule:nonzero;stroke:#000;stroke-width:4.17px;"/><text x="151.362px" y="589.22px" style="font-family:'SourceSansPro-Bold', 'Source Sans Pro', sans-serif;font-weight:700;font-size:22.909px;">1</text></g><g id="node11"><path d="M291.001,744.808c0,-9.264 -7.521,-16.784 -16.784,-16.784l-69.057,0c-9.263,0 -16.784,7.52 -16.784,16.784l0,33.567c0,9.264 7.521,16.784 16.784,16.784l69.057,0c9.263,0 16.784,-7.52 16.784,-16.784l0,-33.567Z" style="fill:none;stroke:#000;stroke-width:4.17px;stroke-linecap:round;stroke-linejoin:round;stroke-miterlimit:1.5;"/><text x="229.98px" y="776.139px" style="font-family:'SourceSansPro-Bold', 'Source Sans Pro', sans-serif;font-weight:700;font-size:45.818px;">0</text></g><g id="node111" serif:id="node11"><path d="M570.168,744.808c0,-9.264 -7.521,-16.784 -16.784,-16.784l-69.057,0c-9.264,0 -16.784,7.52 -16.784,16.784l0,33.567c0,9.264 7.52,16.784 16.784,16.784l69.057,0c9.263,0 16.784,-7.52 16.784,-16.784l0,-33.567Z" style="fill:none;stroke:#000;stroke-width:4.17px;stroke-linecap:round;stroke-linejoin:round;stroke-miterlimit:1.5;"/><text x="509.146px" y="776.139px" style="font-family:'SourceSansPro-Bold', 'Source Sans Pro', sans-serif;font-weight:700;font-size:45.818px;">1</text></g><g id="edge14"><path d="M174.058,732.331l14.594,13.328l-19.672,-1.906l5.078,-11.422Z" style="fill-rule:nonzero;"/><path d="M75.985,333.485c-34.364,54.409 -85.909,157.5 -63,246.273c14.318,48.681 22.909,60.136 57.273,91.636c25.074,25.075 70.664,52.199 104.687,68.171" style="fill:none;fill-rule:nonzero;stroke:#000;stroke-width:4.17px;stroke-dasharray:8.33,8.33,0,0;"/><text x="22.989px" y="583.417px" style="font-family:'SourceSansPro-Bold', 'Source Sans Pro', sans-serif;font-weight:700;font-size:22.909px;">0</text></g><g id="edge18"><path d="M476.812,705.901l8.598,17.796l-17.556,-9.078l8.958,-8.718Z" style="fill-rule:nonzero;"/><path d="M305.076,562.576c22.94,17.842 132.033,113.421 169.872,150.371" style="fill:none;fill-rule:nonzero;stroke:#000;stroke-width:4.17px;stroke-dasharray:8.33,8.33,0,0;"/><text x="439.346px" y="659.939px" style="font-family:'SourceSansPro-Bold', 'Source Sans Pro', sans-serif;font-weight:700;font-size:22.909px;">0</text></g><path d="M250.557,705.998l-7.578,18.254l-4.89,-19.15l12.468,0.896Z" style="fill-rule:nonzero;"/><path d="M253.176,582.381c0,0 -6.501,90.454 -9.122,126.91" style="fill:none;fill-rule:nonzero;stroke:#000;stroke-width:4.17px;"/><text x="256.073px" y="643.273px" style="font-family:'SourceSansPro-Bold', 'Source Sans Pro', sans-serif;font-weight:700;font-size:22.909px;">1</text><g id="edge24"><path d="M514.803,708.301l1.361,19.717l-12.919,-14.957l11.558,-4.76Z" style="fill-rule:nonzero;"/><path d="M452.222,572.763c0,0 42.55,103.314 58.23,141.386" style="fill:none;fill-rule:nonzero;stroke:#000;stroke-width:4.17px;"/><text x="484.683px" y="637.308px" style="font-family:'SourceSansPro-Bold', 'Source Sans Pro', sans-serif;font-weight:700;font-size:22.909px;">1</text></g><g id="edge22"><path d="M286.937,713.811l-16.936,10.188l7.436,-18.312l9.5,8.124Z" style="fill-rule:nonzero;"/><path d="M399.576,571.167c-28.718,33.939 -84.21,99.702 -119.827,141.432" style="fill:none;fill-rule:nonzero;stroke:#000;stroke-width:4.17px;stroke-dasharray:8.33,8.33,0,0;"/><text x="349.528px" y="664.106px" style="font-family:'SourceSansPro-Bold', 'Source Sans Pro', sans-serif;font-weight:700;font-size:22.909px;">0</text></g></g></svg>