<?xml version="1.0" encoding="UTF-8" standalone="no"?>
<!DOCTYPE svg PUBLIC "-//W3C//DTD SVG 1.1//EN" "http://www.w3.org/Graphics/SVG/1.1/DTD/svg11.dtd">
<svg width="100%" height="100%" viewBox="0 0 285 195" version="1.1" xmlns="http://www.w3.org/2000/svg" xmlns:xlink="http://www.w3.org/1999/xlink" xml:space="preserve" xmlns:serif="http://www.serif.com/" style="fill-rule:evenodd;clip-rule:evenodd;">
    <g id="graph0" transform="matrix(1,0,0,1,4,273)">
        <g id="node1" transform="matrix(1,0,0,1,-118.897,-2.72852)">
            <ellipse cx="257" cy="-251" rx="27" ry="18" style="fill:none;stroke:black;stroke-width:1px;"/>
        </g>
        <g id="node2" transform="matrix(1,0,0,1,-97.8973,-17.7285)">
            <ellipse cx="186" cy="-171" rx="27" ry="18" style="fill:none;stroke:black;stroke-width:1px;"/>
        </g>
        <g id="node9" transform="matrix(1,0,0,1,-154.897,-17.7285)">
            <ellipse cx="344" cy="-171" rx="27" ry="18" style="fill:none;stroke:black;stroke-width:1px;"/>
        </g>
        <g id="node3" transform="matrix(1,0,0,1,-74.8973,-33.7285)">
            <ellipse cx="99" cy="-91" rx="27" ry="18" style="fill:none;stroke:black;stroke-width:1px;"/>
        </g>
        <g id="node6" transform="matrix(1,0,0,1,-96.8973,-33.7285)">
            <ellipse cx="186" cy="-91" rx="27" ry="18" style="fill:none;stroke:black;stroke-width:1px;"/>
        </g>
        <g id="edge9" transform="matrix(1,0,0,1,104.475,223.363)">
            <g transform="matrix(1,-0,-0,1,-108.475,-496.363)">
                <g id="edge91" serif:id="edge9">
                    <path d="M196.7,123.787L193.7,129.787L190.7,123.787L196.7,123.787Z" style="fill-rule:nonzero;"/>
                    <path d="M193.7,102.153L193.7,124.987" style="fill:none;fill-rule:nonzero;stroke:black;stroke-width:2px;"/>
                </g>
            </g>
        </g>
        <g id="edge92" serif:id="edge9" transform="matrix(1,0,0,1,1.47513,223.363)">
            <g transform="matrix(1,-0,-0,1,-5.47513,-496.363)">
                <g id="edge93" serif:id="edge9">
                    <path d="M93.7,123.787L90.7,129.787L87.7,123.787L93.7,123.787Z" style="fill-rule:nonzero;"/>
                    <path d="M90.7,102.153L90.7,124.987" style="fill:none;fill-rule:nonzero;stroke:black;stroke-width:2px;"/>
                </g>
            </g>
        </g>
        <g id="edge94" serif:id="edge9" transform="matrix(-1,0,0,1,304.185,222.025)">
            <g transform="matrix(-1,0,0,1,308.185,-495.025)">
                <g id="edge95" serif:id="edge9">
                    <path d="M241.786,125.871L243.954,132.219L237.575,130.145L241.786,125.871Z" style="fill-rule:nonzero;"/>
                    <path d="M209.81,98.576C209.81,98.576 231.884,120.326 240.535,128.85" style="fill:none;fill-rule:nonzero;stroke:black;stroke-width:2px;"/>
                </g>
            </g>
        </g>
        <g id="edge96" serif:id="edge9" transform="matrix(-1,0,0,1,238.887,158.634)">
            <g transform="matrix(-1,0,0,1,242.887,-431.634)">
                <g id="edge97" serif:id="edge9">
                    <path d="M176.488,62.48L178.657,68.828L172.277,66.754L176.488,62.48Z" style="fill-rule:nonzero;"/>
                    <path d="M146.82,37.458C146.82,37.458 167.017,57.359 175.238,65.459" style="fill:none;fill-rule:nonzero;stroke:black;stroke-width:2px;stroke-linecap:round;"/>
                </g>
            </g>
        </g>
        <g id="edge98" serif:id="edge9" transform="matrix(1,0,0,1,-26.4203,222.025)">
            <g transform="matrix(1,-0,-0,1,22.4203,-495.025)">
                <g id="edge99" serif:id="edge9">
                    <path d="M48.19,130.145L41.81,132.219L43.979,125.871L48.19,130.145Z" style="fill-rule:nonzero;"/>
                    <path d="M75.954,98.576C75.954,98.576 53.88,120.326 45.229,128.85" style="fill:none;fill-rule:nonzero;stroke:black;stroke-width:2px;"/>
                </g>
            </g>
        </g>
        <g id="node31" serif:id="node3" transform="matrix(1,0,0,1,-74.8973,-33.7285)">
            <ellipse cx="99" cy="-91" rx="27" ry="18" style="fill:none;stroke:black;stroke-width:1px;"/>
        </g>
        <g id="node61" serif:id="node6" transform="matrix(1,0,0,1,-96.8973,-33.7285)">
            <ellipse cx="186" cy="-91" rx="27" ry="18" style="fill:none;stroke:black;stroke-width:1px;"/>
        </g>
        <g id="edge910" serif:id="edge9" transform="matrix(1,0,0,1,1.47513,223.363)">
            <g transform="matrix(1,-0,-0,1,-5.47513,-496.363)">
                <g id="edge911" serif:id="edge9">
                    <path d="M93.7,123.787L90.7,129.787L87.7,123.787L93.7,123.787Z" style="fill-rule:nonzero;"/>
                    <path d="M90.7,102.153L90.7,124.987" style="fill:none;fill-rule:nonzero;stroke:black;stroke-width:2px;"/>
                </g>
            </g>
        </g>
        <g id="edge912" serif:id="edge9" transform="matrix(1,0,0,1,-26.4203,222.025)">
            <g transform="matrix(1,-0,-0,1,22.4203,-495.025)">
                <g id="edge913" serif:id="edge9">
                    <path d="M48.19,130.145L41.81,132.219L43.979,125.871L48.19,130.145Z" style="fill-rule:nonzero;"/>
                    <path d="M75.954,98.576C75.954,98.576 53.88,120.326 45.229,128.85" style="fill:none;fill-rule:nonzero;stroke:black;stroke-width:2px;"/>
                </g>
            </g>
        </g>
        <g id="edge914" serif:id="edge9" transform="matrix(1,0,0,1,1.47513,287.363)">
            <g transform="matrix(1,-0,-0,1,-5.47513,-560.363)">
                <g id="edge915" serif:id="edge9">
                    <path d="M93.7,168.787L90.7,174.787L87.7,168.787L93.7,168.787Z" style="fill-rule:nonzero;"/>
                    <path d="M90.7,166.153L90.7,169.987" style="fill:none;fill-rule:nonzero;stroke:black;stroke-width:2px;"/>
                </g>
            </g>
        </g>
        <g id="edge916" serif:id="edge9" transform="matrix(1,0,0,1,-27.4203,286.025)">
            <g id="edge917" serif:id="edge9" transform="matrix(1,0,0,1,-37.1046,1.33811)">
                <g transform="matrix(1,-0,-0,1,60.5249,-560.363)">
                    <g id="edge918" serif:id="edge9">
                        <path d="M27.7,168.787L24.7,174.787L21.7,168.787L27.7,168.787Z" style="fill-rule:nonzero;"/>
                        <path d="M24.7,166.153L24.7,169.987" style="fill:none;fill-rule:nonzero;stroke:black;stroke-width:2px;"/>
                    </g>
                </g>
            </g>
            <g transform="matrix(1,0,0,1,-64,0)">
                <g transform="matrix(1,-0,-0,1,87.4203,-559.025)">
                    <path d="M8.882,168.829L2.503,170.903L4.671,164.555L8.882,168.829Z" style="fill-rule:nonzero;"/>
                    <path d="M10.954,162.576C10.954,162.576 8.266,165.225 5.922,167.534" style="fill:none;fill-rule:nonzero;stroke:black;stroke-width:2px;"/>
                </g>
            </g>
        </g>
        <g id="edge919" serif:id="edge9" transform="matrix(-1,0,0,1,273.982,287.363)">
            <g transform="matrix(-1,0,0,1,277.982,-560.363)">
                <g id="edge920" serif:id="edge9">
                    <path d="M195.756,168.787L192.756,174.787L189.756,168.787L195.756,168.787Z" style="fill-rule:nonzero;"/>
                    <path d="M192.756,166.153L192.756,169.987" style="fill:none;fill-rule:nonzero;stroke:black;stroke-width:2px;"/>
                </g>
            </g>
        </g>
        <g id="edge921" serif:id="edge9" transform="matrix(-1,0,0,1,301.877,286.025)">
            <g id="edge922" serif:id="edge9" transform="matrix(1,0,0,1,-37.1046,1.33811)">
                <g transform="matrix(-1,0,0,1,342.982,-560.363)">
                    <g id="edge923" serif:id="edge9">
                        <path d="M260.756,168.787L257.756,174.787L254.756,168.787L260.756,168.787Z" style="fill-rule:nonzero;"/>
                        <path d="M257.756,166.153L257.756,169.987" style="fill:none;fill-rule:nonzero;stroke:black;stroke-width:2px;"/>
                    </g>
                </g>
            </g>
            <g transform="matrix(1,0,0,1,-65,0)">
                <g transform="matrix(-1,0,0,1,370.877,-559.025)">
                    <path d="M278.786,164.555L280.954,170.903L274.575,168.829L278.786,164.555Z" style="fill-rule:nonzero;"/>
                    <path d="M272.503,162.576C272.503,162.576 275.191,165.225 277.535,167.534" style="fill:none;fill-rule:nonzero;stroke:black;stroke-width:2px;"/>
                </g>
            </g>
        </g>
        <g transform="matrix(1,0,0,1,36.5712,158.147)">
            <g id="edge924" serif:id="edge9">
                <g transform="matrix(1,-0,-0,1,-40.5712,-431.147)">
                    <path d="M111.182,66.267L104.802,68.341L106.971,61.993L111.182,66.267Z" style="fill-rule:nonzero;"/>
                    <path d="M136.094,37.515C136.094,37.515 116.338,56.976 108.221,64.972" style="fill:none;fill-rule:nonzero;stroke:black;stroke-width:2px;stroke-linecap:round;"/>
                </g>
            </g>
        </g>
        <g id="node10" transform="matrix(1,0,0,1,-156.897,-33.7285)">
            <ellipse cx="344" cy="-91" rx="27" ry="18" style="fill:none;stroke:black;stroke-width:1px;"/>
        </g>
        <g id="node13" transform="matrix(1,0,0,1,-206.897,-33.7285)">
            <ellipse cx="459" cy="-91" rx="27" ry="18" style="fill:none;stroke:black;stroke-width:1px;"/>
        </g>
        <g transform="matrix(1,0,0,1,59.7389,-278.987)">
            <text x="73.301px" y="56.184px" style="font-family:'SourceSansPro-Bold', 'Source Sans Pro', sans-serif;font-weight:700;font-size:12px;fill:rgb(255,102,0);">2</text>
            <text x="79.637px" y="52.188px" style="font-family:'SourceSansPro-Bold', 'Source Sans Pro', sans-serif;font-weight:700;font-size:6.996px;fill:rgb(255,102,0);">0</text>
        </g>
        <g transform="matrix(1,0,0,1,59.7984,-240.693)">
            <text x="73.301px" y="56.184px" style="font-family:'SourceSansPro-Bold', 'Source Sans Pro', sans-serif;font-weight:700;font-size:12px;fill:rgb(255,102,0);">2</text>
            <text x="79.637px" y="52.188px" style="font-family:'SourceSansPro-Bold', 'Source Sans Pro', sans-serif;font-weight:700;font-size:6.996px;fill:rgb(255,102,0);">1</text>
        </g>
        <g transform="matrix(1,0,0,1,59.7634,-176.651)">
            <text x="73.301px" y="56.184px" style="font-family:'SourceSansPro-Bold', 'Source Sans Pro', sans-serif;font-weight:700;font-size:12px;fill:rgb(255,102,0);">2</text>
            <text x="79.637px" y="52.188px" style="font-family:'SourceSansPro-Bold', 'Source Sans Pro', sans-serif;font-weight:700;font-size:6.996px;fill:rgb(255,102,0);">2</text>
        </g>
        <g transform="matrix(1,0,0,1,59.7634,-136.651)">
            <text x="73.301px" y="56.184px" style="font-family:'SourceSansPro-Bold', 'Source Sans Pro', sans-serif;font-weight:700;font-size:12px;fill:rgb(255,102,0);">2</text>
            <text x="79.637px" y="52.188px" style="font-family:'SourceSansPro-Bold', 'Source Sans Pro', sans-serif;font-weight:700;font-size:6.996px;fill:rgb(255,102,0);">h</text>
        </g>
        <g transform="matrix(1,0,0,1,-29.9766,-230.891)">
            <text x="81.515px" y="139.941px" style="font-family:'SourceSansPro-Bold', 'Source Sans Pro', sans-serif;font-weight:700;font-size:12px;">...</text>
        </g>
        <g transform="matrix(1,0,0,1,133.023,-230.891)">
            <text x="81.515px" y="139.941px" style="font-family:'SourceSansPro-Bold', 'Source Sans Pro', sans-serif;font-weight:700;font-size:12px;">...</text>
        </g>
        <g transform="matrix(-1,0,0,1,202.877,286.025)">
            <g transform="matrix(-1,0,0,1,206.877,-559.025)">
                <path d="M114.786,164.555L116.954,170.903L110.575,168.829L114.786,164.555Z" style="fill-rule:nonzero;"/>
                <path d="M108.503,162.576C108.503,162.576 111.191,165.225 113.535,167.534" style="fill:none;fill-rule:nonzero;stroke:black;stroke-width:2px;"/>
            </g>
        </g>
        <g transform="matrix(1,0,0,1,72.5797,286.025)">
            <g transform="matrix(1,-0,-0,1,-76.5797,-559.025)">
                <path d="M172.882,168.829L166.503,170.903L168.671,164.555L172.882,168.829Z" style="fill-rule:nonzero;"/>
                <path d="M174.954,162.576C174.954,162.576 172.266,165.225 169.922,167.534" style="fill:none;fill-rule:nonzero;stroke:black;stroke-width:2px;"/>
            </g>
        </g>
    </g>
</svg>
