<?xml version="1.0" encoding="UTF-8" standalone="no"?>
<!DOCTYPE svg PUBLIC "-//W3C//DTD SVG 1.1//EN" "http://www.w3.org/Graphics/SVG/1.1/DTD/svg11.dtd">
<svg width="100%" height="100%" viewBox="0 0 435 250" version="1.1" xmlns="http://www.w3.org/2000/svg" xmlns:xlink="http://www.w3.org/1999/xlink" xml:space="preserve" xmlns:serif="http://www.serif.com/" style="fill-rule:evenodd;clip-rule:evenodd;">
    <g id="Layer-1" serif:id="Layer 1">
        <g id="g6217" transform="matrix(1,0,0,1,-65.7827,-22.968)">
            <g id="g5124" transform="matrix(1,0,0,1,18.9595,-7.67145)">
                <path id="path5112" d="M261.429,57.762L142.857,122.047L214.286,200.619" style="fill:none;stroke:black;stroke-width:2px;"/>
                <g id="path5114" transform="matrix(1,0,0,1,0,-30)">
                    <path d="M142.857,152.047L71.429,230.619" style="fill:none;stroke:black;stroke-width:2px;"/>
                </g>
                <path id="path5120" d="M262.857,56.333L380,120.619L311.429,199.19" style="fill:none;stroke:black;stroke-width:2px;"/>
                <g id="path5122" transform="matrix(1,0,0,1,0,-30)">
                    <path d="M378.571,152.047L452.857,229.19" style="fill:none;stroke:black;stroke-width:2px;"/>
                </g>
            </g>
            <g id="g5269">
                <g transform="matrix(1,0,0,1,221.879,-9.10005)">
                    <g id="g4620">
                        <path id="path4622" d="M82.857,59.409C82.857,72.34 72.217,82.981 59.286,82.981C46.355,82.981 35.714,72.34 35.714,59.409C35.714,46.479 46.355,35.838 59.286,35.838C72.217,35.838 82.857,46.479 82.857,59.409L82.857,59.409Z" style="fill:white;stroke:black;stroke-width:2px;"/>
                    </g>
                </g>
                <g id="g5252" transform="matrix(1,0,0,1,0,-30)">
                    <g transform="matrix(1,0,0,1,32.5928,162.281)">
                        <g id="g4443">
                            <path id="path4445" d="M82.857,59.409C82.857,72.34 72.217,82.981 59.286,82.981C46.355,82.981 35.714,72.34 35.714,59.409C35.714,46.479 46.355,35.838 59.286,35.838C72.217,35.838 82.857,46.479 82.857,59.409L82.857,59.409Z" style="fill:white;stroke:black;stroke-width:2px;"/>
                        </g>
                    </g>
                    <g transform="matrix(1,0,0,1,175.45,162.281)">
                        <g id="g4453">
                            <path id="path4455" d="M82.857,59.409C82.857,72.34 72.217,82.981 59.286,82.981C46.355,82.981 35.714,72.34 35.714,59.409C35.714,46.479 46.355,35.838 59.286,35.838C72.217,35.838 82.857,46.479 82.857,59.409L82.857,59.409Z" style="fill:white;stroke:black;stroke-width:2px;"/>
                        </g>
                    </g>
                    <g transform="matrix(1,0,0,1,103.307,84.2332)">
                        <g id="g4014">
                            <path id="path4016" d="M82.857,59.409C82.857,72.34 72.217,82.981 59.286,82.981C46.355,82.981 35.714,72.34 35.714,59.409C35.714,46.479 46.355,35.838 59.286,35.838C72.217,35.838 82.857,46.479 82.857,59.409L82.857,59.409Z" style="fill:white;stroke:black;stroke-width:2px;"/>
                        </g>
                    </g>
                </g>
                <g id="g4891" transform="matrix(1,0,0,1,-3.12153,-37.6715)">
                    <g transform="matrix(1,0,0,1,271.429,169.952)">
                        <g id="g4871">
                            <path id="path4602" d="M82.857,59.409C82.857,72.34 72.217,82.981 59.286,82.981C46.355,82.981 35.714,72.34 35.714,59.409C35.714,46.479 46.355,35.838 59.286,35.838C72.217,35.838 82.857,46.479 82.857,59.409L82.857,59.409Z" style="fill:white;stroke:black;stroke-width:2px;"/>
                        </g>
                    </g>
                    <g transform="matrix(1,0,0,1,414.286,169.952)">
                        <g id="g4803">
                            <g id="g4750">
                                <path id="path4752" d="M82.857,59.409C82.857,72.34 72.217,82.981 59.286,82.981C46.355,82.981 35.714,72.34 35.714,59.409C35.714,46.479 46.355,35.838 59.286,35.838C72.217,35.838 82.857,46.479 82.857,59.409L82.857,59.409Z" style="fill:white;stroke:black;stroke-width:2px;"/>
                            </g>
                        </g>
                    </g>
                    <g transform="matrix(1,0,0,1,342.143,91.9047)">
                        <g id="g4861">
                            <path id="path4863" d="M82.857,59.409C82.857,72.34 72.217,82.981 59.286,82.981C46.355,82.981 35.714,72.34 35.714,59.409C35.714,46.479 46.355,35.838 59.286,35.838C72.217,35.838 82.857,46.479 82.857,59.409L82.857,59.409Z" style="fill:white;stroke:black;stroke-width:2px;"/>
                        </g>
                    </g>
                </g>
            </g>
        </g>
        <g transform="matrix(1,0,0,1,6.89225,129.411)">
            <text x="156.117px" y="47.114px" style="font-family:'SourceSansPro-Bold', 'Source Sans Pro', sans-serif;font-weight:700;font-size:20px;fill:rgb(255,102,0);">4</text>
        </g>
        <g transform="matrix(1,0,0,1,99.8418,129.291)">
            <text x="156.117px" y="47.114px" style="font-family:'SourceSansPro-Bold', 'Source Sans Pro', sans-serif;font-weight:700;font-size:20px;fill:rgb(255,102,0);">5</text>
        </g>
        <g transform="matrix(1,0,0,1,243.589,129.411)">
            <text x="156.117px" y="47.114px" style="font-family:'SourceSansPro-Bold', 'Source Sans Pro', sans-serif;font-weight:700;font-size:20px;fill:rgb(255,102,0);">6</text>
        </g>
        <g transform="matrix(1,0,0,1,-135.405,129.411)">
            <text x="156.117px" y="47.114px" style="font-family:'SourceSansPro-Bold', 'Source Sans Pro', sans-serif;font-weight:700;font-size:20px;fill:rgb(255,102,0);">3</text>
        </g>
        <g transform="matrix(1,0,0,1,-64.5878,50.2235)">
            <text x="156.117px" y="47.114px" style="font-family:'SourceSansPro-Bold', 'Source Sans Pro', sans-serif;font-weight:700;font-size:20px;fill:rgb(255,102,0);">1</text>
        </g>
        <g transform="matrix(1,0,0,1,170.658,50.2235)">
            <text x="156.117px" y="47.114px" style="font-family:'SourceSansPro-Bold', 'Source Sans Pro', sans-serif;font-weight:700;font-size:20px;fill:rgb(255,102,0);">2</text>
        </g>
        <g transform="matrix(1,0,0,1,53.7056,-12.7736)">
            <text x="156.117px" y="47.114px" style="font-family:'SourceSansPro-Bold', 'Source Sans Pro', sans-serif;font-weight:700;font-size:20px;fill:rgb(255,102,0);">0</text>
        </g>
        <g transform="matrix(1,0,0,1,116.975,4.65418)">
            <rect x="10.628" y="208.49" width="175" height="25" style="fill:white;"/>
            <text x="17.848px" y="228px" style="font-family:'SourceSansPro-Bold', 'Source Sans Pro', sans-serif;font-weight:700;font-size:20px;fill:rgb(255,102,0);">0</text>
            <text x="42.848px" y="228px" style="font-family:'SourceSansPro-Bold', 'Source Sans Pro', sans-serif;font-weight:700;font-size:20px;fill:rgb(255,102,0);">1</text>
            <text x="67.848px" y="228px" style="font-family:'SourceSansPro-Bold', 'Source Sans Pro', sans-serif;font-weight:700;font-size:20px;fill:rgb(255,102,0);">2</text>
            <text x="92.848px" y="228px" style="font-family:'SourceSansPro-Bold', 'Source Sans Pro', sans-serif;font-weight:700;font-size:20px;fill:rgb(255,102,0);">3</text>
            <text x="117.848px" y="228px" style="font-family:'SourceSansPro-Bold', 'Source Sans Pro', sans-serif;font-weight:700;font-size:20px;fill:rgb(255,102,0);">4</text>
            <text x="142.848px" y="228px" style="font-family:'SourceSansPro-Bold', 'Source Sans Pro', sans-serif;font-weight:700;font-size:20px;fill:rgb(255,102,0);">5</text>
            <text x="167.848px" y="228px" style="font-family:'SourceSansPro-Bold', 'Source Sans Pro', sans-serif;font-weight:700;font-size:20px;fill:rgb(255,102,0);">6</text>
            <path d="M10.628,207.99L10.628,233.99M185.628,207.99L185.628,233.99M35.628,208.49L35.628,233.49M60.628,208.49L60.628,233.49M85.628,208.49L85.628,233.49M110.628,208.49L110.628,233.49M135.628,208.49L135.628,233.49M160.628,208.49L160.628,233.49M10.628,208.49L185.628,208.49M10.628,233.49L185.628,233.49" style="fill:none;stroke:black;stroke-width:1px;stroke-linejoin:round;stroke-miterlimit:2;"/>
        </g>
    </g>
</svg>
