<?xml version="1.0" encoding="UTF-8" standalone="no"?>
<!DOCTYPE svg PUBLIC "-//W3C//DTD SVG 1.1//EN" "http://www.w3.org/Graphics/SVG/1.1/DTD/svg11.dtd">
<svg width="100%" height="100%" viewBox="0 0 1210 540" version="1.1" xmlns="http://www.w3.org/2000/svg" xmlns:xlink="http://www.w3.org/1999/xlink" xml:space="preserve" xmlns:serif="http://www.serif.com/" style="fill-rule:evenodd;clip-rule:evenodd;stroke-linecap:round;stroke-linejoin:round;">
    <g id="Layer-1" serif:id="Layer 1" transform="matrix(1,0,0,1,281.5,-61)">
        <g id="g2782" transform="matrix(1,0,0,1,-226.188,26)">
            <g id="path1874" transform="matrix(1,0,0,1,419.5,20.5)">
                <path d="M120,70C120,97.429 97.429,120 70,120C42.571,120 20,97.429 20,70C20,42.571 42.571,20 70,20C97.429,20 120,42.571 120,70Z" style="fill-rule:nonzero;stroke:black;stroke-width:3px;"/>
            </g>
            <g transform="matrix(1,0,0,1,488.797,107.973)">
                <g id="text2762">
                    <text x="-25.344px" y="0px" style="font-family:'SourceSansPro-Bold', 'Source Sans Pro', sans-serif;font-weight:700;font-size:48px;fill:white;">13</text>
                </g>
            </g>
        </g>
        <g id="g2798" transform="matrix(1,0,0,1,-328.75,45)">
            <g id="path2789" transform="matrix(1,0,0,1,198.5,141.5)">
                <path d="M120,70C120,97.429 97.429,120 70,120C42.571,120 20,97.429 20,70C20,42.571 42.571,20 70,20C97.429,20 120,42.571 120,70Z" style="fill:rgb(255,0,0);fill-rule:nonzero;stroke:black;stroke-width:3px;"/>
            </g>
            <g transform="matrix(1,0,0,1,267.797,228.973)">
                <g id="text2791">
                    <text x="-12.672px" y="0px" style="font-family:'SourceSansPro-Bold', 'Source Sans Pro', sans-serif;font-weight:700;font-size:48px;fill:white;">8</text>
                </g>
            </g>
        </g>
        <g id="g2803" transform="matrix(1,0,0,1,318.375,45)">
            <g id="path2805" transform="matrix(1,0,0,1,198.5,141.5)">
                <path d="M120,70C120,97.429 97.429,120 70,120C42.571,120 20,97.429 20,70C20,42.571 42.571,20 70,20C97.429,20 120,42.571 120,70Z" style="fill:rgb(255,0,0);fill-rule:nonzero;stroke:black;stroke-width:3px;"/>
            </g>
            <g transform="matrix(1,0,0,1,267.797,228.973)">
                <g id="text2807">
                    <text x="-25.344px" y="0px" style="font-family:'SourceSansPro-Bold', 'Source Sans Pro', sans-serif;font-weight:700;font-size:48px;fill:white;">17</text>
                </g>
            </g>
        </g>
        <g id="g2811" transform="matrix(1,0,0,1,-715,309)">
            <g id="path2813" transform="matrix(1,0,0,1,419.5,20.5)">
                <path d="M120,70C120,97.429 97.429,120 70,120C42.571,120 20,97.429 20,70C20,42.571 42.571,20 70,20C97.429,20 120,42.571 120,70Z" style="fill-rule:nonzero;stroke:black;stroke-width:3px;"/>
            </g>
            <g transform="matrix(1,0,0,1,488.797,107.973)">
                <g id="text2815">
                    <text x="-12.672px" y="0px" style="font-family:'SourceSansPro-Bold', 'Source Sans Pro', sans-serif;font-weight:700;font-size:48px;fill:white;">1</text>
                </g>
            </g>
        </g>
        <g id="g2835" transform="matrix(1,0,0,1,258,309)">
            <g id="path2837" transform="matrix(1,0,0,1,419.5,20.5)">
                <path d="M120,70C120,97.429 97.429,120 70,120C42.571,120 20,97.429 20,70C20,42.571 42.571,20 70,20C97.429,20 120,42.571 120,70Z" style="fill-rule:nonzero;stroke:black;stroke-width:3px;"/>
            </g>
            <g transform="matrix(1,0,0,1,488.797,107.973)">
                <g id="text2839">
                    <text x="-25.344px" y="0px" style="font-family:'SourceSansPro-Bold', 'Source Sans Pro', sans-serif;font-weight:700;font-size:48px;fill:white;">25</text>
                </g>
            </g>
        </g>
        <g id="g2843" transform="matrix(1,0,0,1,-380,328)">
            <g id="path2845" transform="matrix(1,0,0,1,198.5,141.5)">
                <path d="M120,70C120,97.429 97.429,120 70,120C42.571,120 20,97.429 20,70C20,42.571 42.571,20 70,20C97.429,20 120,42.571 120,70Z" style="fill:rgb(255,0,0);fill-rule:nonzero;stroke:black;stroke-width:3px;"/>
            </g>
            <g transform="matrix(1,0,0,1,267.797,228.973)">
                <g id="text2847">
                    <text x="-12.672px" y="0px" style="font-family:'SourceSansPro-Bold', 'Source Sans Pro', sans-serif;font-weight:700;font-size:48px;fill:white;">6</text>
                </g>
            </g>
        </g>
        <g id="g3298" transform="matrix(1,0,0,1,-60,-72)">
            <g id="path2853" transform="matrix(1,0,0,1,613.5,541.5)">
                <path d="M120,70C120,97.429 97.429,120 70,120C42.571,120 20,97.429 20,70C20,42.571 42.571,20 70,20C97.429,20 120,42.571 120,70Z" style="fill:rgb(255,0,0);fill-rule:nonzero;stroke:black;stroke-width:3px;"/>
            </g>
            <g transform="matrix(1,0,0,1,682.797,628.973)">
                <g id="text2855">
                    <text x="-25.344px" y="0px" style="font-family:'SourceSansPro-Bold', 'Source Sans Pro', sans-serif;font-weight:700;font-size:48px;fill:white;">22</text>
                </g>
            </g>
        </g>
        <g id="g3303" transform="matrix(1,0,0,1,-60,-72)">
            <g id="path2861" transform="matrix(1,0,0,1,859,541.5)">
                <path d="M120,70C120,97.429 97.429,120 70,120C42.571,120 20,97.429 20,70C20,42.571 42.571,20 70,20C97.429,20 120,42.571 120,70Z" style="fill:rgb(255,0,0);fill-rule:nonzero;stroke:black;stroke-width:3px;"/>
            </g>
            <g transform="matrix(1,0,0,1,928.297,628.973)">
                <g id="text2863">
                    <text x="-25.344px" y="0px" style="font-family:'SourceSansPro-Bold', 'Source Sans Pro', sans-serif;font-weight:700;font-size:48px;fill:white;">27</text>
                </g>
            </g>
        </g>
        <g id="g3660" transform="matrix(1,0,0,1,-72,-12)">
            <path id="path3227" d="M855.031,448.125L852.75,450.063L903.938,509.969L906.219,508L855.031,448.125Z"/>
            <path id="path3666" d="M894.356,475.953L907.7,511.978L874.197,493.18C883.89,492.474 892.011,485.491 894.356,475.953Z"/>
        </g>
        <g id="g2827" transform="matrix(1,0,0,1,-63.25,309)">
            <g id="path2829" transform="matrix(1,0,0,1,419.5,20.5)">
                <path d="M120,70C120,97.429 97.429,120 70,120C42.571,120 20,97.429 20,70C20,42.571 42.571,20 70,20C97.429,20 120,42.571 120,70Z" style="fill-rule:nonzero;stroke:black;stroke-width:3px;"/>
            </g>
            <g transform="matrix(1,0,0,1,488.797,107.973)">
                <g id="text2831">
                    <text x="-25.344px" y="0px" style="font-family:'SourceSansPro-Bold', 'Source Sans Pro', sans-serif;font-weight:700;font-size:48px;fill:white;">15</text>
                </g>
            </g>
        </g>
        <g id="g3404" transform="matrix(1,0,0,1,-384.5,309)">
            <g id="path3406" transform="matrix(1,0,0,1,419.5,20.5)">
                <path d="M120,70C120,97.429 97.429,120 70,120C42.571,120 20,97.429 20,70C20,42.571 42.571,20 70,20C97.429,20 120,42.571 120,70Z" style="fill-rule:nonzero;stroke:black;stroke-width:3px;"/>
            </g>
            <g transform="matrix(1,0,0,1,488.797,107.973)">
                <g id="text3408">
                    <text x="-25.344px" y="0px" style="font-family:'SourceSansPro-Bold', 'Source Sans Pro', sans-serif;font-weight:700;font-size:48px;fill:white;">11</text>
                </g>
            </g>
        </g>
        <g id="g3580" transform="matrix(1,0,0,1,-72,-12)">
            <path id="path3484" d="M-121.281,447.094L-123.656,448.906L-75.656,510.906L-73.281,509.063L-121.281,447.094Z"/>
            <path id="path3586" d="M-83.588,476.474L-72,513.101L-104.556,492.707C-94.84,492.47 -86.392,485.887 -83.588,476.474Z"/>
        </g>
        <g id="g3596" transform="matrix(1,0,0,1,-72,-12)">
            <path id="path3536" d="M-34.031,293.906L-116.063,369.906L-114.031,372.125L-31.969,296.094L-34.031,293.906Z"/>
            <path id="path3602" d="M-82.464,358.984L-117.922,373.766L-100.487,339.534C-99.392,349.191 -92.088,357.024 -82.464,358.984Z"/>
        </g>
        <g id="g3604" transform="matrix(1,0,0,1,-72,-12)">
            <path id="path3538" d="M54.969,293.906L52.938,296.094L134.969,372.125L137.031,369.906L54.969,293.906Z"/>
            <path id="path3610" d="M121.524,339.456L138.958,373.688L103.5,358.906C113.046,357.08 120.301,349.202 121.524,339.456Z"/>
        </g>
        <g id="g3628" transform="matrix(1,0,0,1,-72,-12)">
            <path id="path3540" d="M615.031,293.906L532.969,369.906L535.031,372.125L617.063,296.094L615.031,293.906Z"/>
            <path id="path3634" d="M566.572,358.984L531.114,373.766L548.548,339.534C549.644,349.191 556.948,357.024 566.572,358.984Z"/>
        </g>
        <g id="g3652" transform="matrix(1,0,0,1,-72,-12)">
            <path id="path3542" d="M702.031,293.906L699.969,296.094L782.031,372.125L784.063,369.906L702.031,293.906Z"/>
            <path id="path3658" d="M768.559,339.456L785.994,373.688L750.536,358.906C760.081,357.08 767.336,349.202 768.559,339.456Z"/>
        </g>
        <g id="g3612" transform="matrix(1,0,0,1,-72,-12)">
            <path id="path3550" d="M287.469,146.563L56.5,238.594L57.625,241.406L288.594,149.375L287.469,146.563Z"/>
            <path id="path3618" d="M91.778,240.494L53.376,241.523L81.963,215.861C79.51,225.265 83.505,235.201 91.778,240.494Z"/>
        </g>
        <g id="g3620" transform="matrix(1,0,0,1,-72,-12)">
            <path id="path3552" d="M382.531,147.594L381.438,150.375L609.25,241.406L610.344,238.594L382.531,147.594Z"/>
            <path id="path3626" d="M584.949,215.74L613.512,241.429L575.111,240.364C583.364,235.232 587.307,225.274 584.949,215.74Z"/>
        </g>
        <g id="g2312" transform="matrix(1.06686,0,0,1.05946,0.472652,-195.164)">
            <path id="path2314" d="M668.813,594.094L620.813,656.063L623.188,657.906L671.156,595.906L668.813,594.094Z"/>
            <path id="path2316" d="M652.159,639.772L619.603,660.165L631.191,623.539C633.854,632.886 642.343,639.416 652.159,639.772Z"/>
        </g>
    </g>
</svg>
