<?xml version="1.0" encoding="UTF-8" standalone="no"?>
<svg
   xmlns:serif="http://www.serif.com/"
   xmlns:dc="http://purl.org/dc/elements/1.1/"
   xmlns:cc="http://creativecommons.org/ns#"
   xmlns:rdf="http://www.w3.org/1999/02/22-rdf-syntax-ns#"
   xmlns:svg="http://www.w3.org/2000/svg"
   xmlns="http://www.w3.org/2000/svg"
   xmlns:sodipodi="http://sodipodi.sourceforge.net/DTD/sodipodi-0.dtd"
   xmlns:inkscape="http://www.inkscape.org/namespaces/inkscape"
   inkscape:version="1.0rc1 (09960d6, 2020-04-09)"
   sodipodi:docname="terminologie5.svg"
   id="svg901"
   style="fill-rule:evenodd;clip-rule:evenodd;"
   xml:space="preserve"
   version="1.1"
   viewBox="0 0 470 290"
   height="100%"
   width="100%"><metadata
   id="metadata907"><rdf:RDF><cc:Work
       rdf:about=""><dc:format>image/svg+xml</dc:format><dc:type
         rdf:resource="http://purl.org/dc/dcmitype/StillImage" /></cc:Work></rdf:RDF></metadata><defs
   id="defs905" /><sodipodi:namedview
   inkscape:current-layer="svg901"
   inkscape:window-maximized="1"
   inkscape:window-y="23"
   inkscape:window-x="0"
   inkscape:cy="145"
   inkscape:cx="235"
   inkscape:zoom="1.4595745"
   showgrid="false"
   id="namedview903"
   inkscape:window-height="1395"
   inkscape:window-width="2560"
   inkscape:pageshadow="2"
   inkscape:pageopacity="0"
   guidetolerance="10"
   gridtolerance="10"
   objecttolerance="10"
   borderopacity="1"
   bordercolor="#666666"
   pagecolor="#ffffff" />
    <g
   serif:id="Layer 1"
   id="Layer-1">
        <g
   transform="matrix(1,0,0,1,-27.7827,-21.968)"
   id="g6217">
            <g
   transform="matrix(1,0,0,1,18.9595,-7.67145)"
   id="g5124">
                <path
   style="fill:none;stroke:rgb(255,102,0);stroke-width:2px;"
   d="M261.429,57.762L142.857,122.047"
   id="path5112" />
                <path
   style="fill:none;stroke:black;stroke-width:2px;"
   d="M142.857,122.047L214.286,200.619"
   serif:id="path5112"
   id="path51121" />
                <g
   transform="matrix(1,0,0,1,0,-30)"
   id="path5114">
                    <path
   id="path835"
   style="fill:none;stroke:rgb(255,102,0);stroke-width:2px;"
   d="M142.857,152.047L71.429,230.619L35.714,310.619" />
                </g>
                <g
   transform="matrix(1,0,0,1,0,-40)"
   id="path5116">
                    
                </g>
                <path
   style="fill:none;stroke:black;stroke-width:2px;"
   d="M262.857,56.333L380,120.619L311.429,199.19"
   id="path5120" />
                <g
   transform="matrix(1,0,0,1,0,-30)"
   id="path5122">
                    <path
   id="path842"
   style="fill:none;stroke:black;stroke-width:2px;"
   d="M378.571,152.047L452.857,229.19" />
                </g>
            </g>
            <g
   id="g5269">
                <g
   transform="matrix(1,0,0,1,18.9595,-47.6715)"
   id="g5046">
                    <g
   id="g848"
   transform="matrix(1,0,0,1,-24.2857,270)">
                        <g
   id="g3717">
                            <path
   style="fill:white;stroke:rgb(255,102,0);stroke-width:2px;"
   d="M82.857,59.409C82.857,72.34 72.217,82.981 59.286,82.981C46.355,82.981 35.714,72.34 35.714,59.409C35.714,46.479 46.355,35.838 59.286,35.838C65.215,35.838 70.662,38.075 74.823,41.744C79.737,46.077 82.857,52.407 82.857,59.409Z"
   id="path3705" />
                        </g>
                    </g>
                    <g
   id="g852"
   transform="matrix(1,0,0,1,47.1429,270)">
                        <g
   id="g4337">
                            
                        </g>
                    </g>
                </g>
                <g
   id="g857"
   transform="matrix(1,0,0,1,221.879,-9.10005)">
                    <g
   id="g4620">
                        <path
   style="fill:white;stroke:rgb(255,102,0);stroke-width:2px;"
   d="M82.857,59.409C82.857,72.34 72.217,82.981 59.286,82.981C46.355,82.981 35.714,72.34 35.714,59.409C35.714,46.479 46.355,35.838 59.286,35.838C72.217,35.838 82.857,46.479 82.857,59.409Z"
   id="path4622" />
                    </g>
                </g>
                <g
   transform="matrix(1,0,0,1,0,-30)"
   id="g5252">
                    <g
   id="g861"
   transform="matrix(1,0,0,1,32.5928,162.281)">
                        <g
   id="g4443">
                            <path
   style="fill:white;stroke:rgb(255,102,0);stroke-width:2px;"
   d="M82.857,59.409C82.857,72.34 72.217,82.981 59.286,82.981C46.355,82.981 35.714,72.34 35.714,59.409C35.714,46.479 46.355,35.838 59.286,35.838C72.217,35.838 82.857,46.479 82.857,59.409Z"
   id="path4445" />
                        </g>
                    </g>
                    <g
   id="g865"
   transform="matrix(1,0,0,1,175.45,162.281)">
                        <g
   id="g4453">
                            <path
   style="fill:white;stroke:black;stroke-width:2px;"
   d="M82.857,59.409C82.857,72.34 72.217,82.981 59.286,82.981C46.355,82.981 35.714,72.34 35.714,59.409C35.714,46.479 46.355,35.838 59.286,35.838C72.217,35.838 82.857,46.479 82.857,59.409Z"
   id="path4455" />
                        </g>
                    </g>
                    <g
   id="g869"
   transform="matrix(1,0,0,1,103.307,84.2332)">
                        <g
   id="g4014">
                            <path
   style="fill:white;stroke:rgb(255,102,0);stroke-width:2px;"
   d="M82.857,59.409C82.857,72.34 72.217,82.981 59.286,82.981C46.355,82.981 35.714,72.34 35.714,59.409C35.714,46.479 46.355,35.838 59.286,35.838C72.217,35.838 82.857,46.479 82.857,59.409Z"
   id="path4016" />
                        </g>
                    </g>
                </g>
                <g
   transform="matrix(1,0,0,1,-3.12153,-37.6715)"
   id="g4891">
                    <g
   id="g874"
   transform="matrix(1,0,0,1,271.429,169.952)">
                        <g
   id="g4871">
                            <path
   style="fill:white;stroke:black;stroke-width:2px;"
   d="M82.857,59.409C82.857,72.34 72.217,82.981 59.286,82.981C46.355,82.981 35.714,72.34 35.714,59.409C35.714,46.479 46.355,35.838 59.286,35.838C72.217,35.838 82.857,46.479 82.857,59.409Z"
   id="path4602" />
                        </g>
                    </g>
                    <g
   id="g879"
   transform="matrix(1,0,0,1,414.286,169.952)">
                        <g
   id="g4803">
                            <g
   id="g4750">
                                <path
   style="fill:white;stroke:black;stroke-width:2px;"
   d="M82.857,59.409C82.857,72.34 72.217,82.981 59.286,82.981C46.355,82.981 35.714,72.34 35.714,59.409C35.714,46.479 46.355,35.838 59.286,35.838C72.217,35.838 82.857,46.479 82.857,59.409Z"
   id="path4752" />
                            </g>
                        </g>
                    </g>
                    <g
   id="g883"
   transform="matrix(1,0,0,1,342.143,91.9047)">
                        <g
   id="g4861">
                            <path
   style="fill:white;stroke:black;stroke-width:2px;"
   d="M82.857,59.409C82.857,72.34 72.217,82.981 59.286,82.981C46.355,82.981 35.714,72.34 35.714,59.409C35.714,46.479 46.355,35.838 59.286,35.838C72.217,35.838 82.857,46.479 82.857,59.409Z"
   id="path4863" />
                        </g>
                    </g>
                </g>
            </g>
        </g>
        <g
   id="g890"
   transform="matrix(1,0,0,1,23.4756,4.94248)">
            <text
   id="text888"
   style="font-family:'SourceSansPro-Bold', 'Source Sans Pro', sans-serif;font-weight:700;font-size:20px;fill:rgb(255,102,0);"
   y="47.114px"
   x="156.117px">1</text>
        </g>
        <g
   id="g894"
   transform="matrix(1,0,0,1,-79.5498,79.9704)">
            <text
   id="text892"
   style="font-family:'SourceSansPro-Bold', 'Source Sans Pro', sans-serif;font-weight:700;font-size:20px;fill:rgb(255,102,0);"
   y="47.114px"
   x="156.117px">2</text>
        </g>
        <g
   id="g898"
   transform="matrix(1,0,0,1,-1.40438,9.22699)">
            <text
   id="text896"
   style="font-family:'SourceSansPro-Bold', 'Source Sans Pro', sans-serif;font-weight:700;font-size:20px;fill:rgb(255,102,0);"
   y="206.45px"
   x="26.108px">3</text>
        </g>
    </g>
</svg>
