<?xml version="1.0" encoding="UTF-8" standalone="no"?>
<svg
   xmlns:serif="http://www.serif.com/"
   xmlns:dc="http://purl.org/dc/elements/1.1/"
   xmlns:cc="http://creativecommons.org/ns#"
   xmlns:rdf="http://www.w3.org/1999/02/22-rdf-syntax-ns#"
   xmlns:svg="http://www.w3.org/2000/svg"
   xmlns="http://www.w3.org/2000/svg"
   xmlns:sodipodi="http://sodipodi.sourceforge.net/DTD/sodipodi-0.dtd"
   xmlns:inkscape="http://www.inkscape.org/namespaces/inkscape"
   inkscape:version="1.0rc1 (09960d6, 2020-04-09)"
   sodipodi:docname="terminologie3.svg"
   id="svg940"
   style="fill-rule:evenodd;clip-rule:evenodd;"
   xml:space="preserve"
   version="1.1"
   viewBox="0 0 470 290"
   height="100%"
   width="100%"><metadata
   id="metadata946"><rdf:RDF><cc:Work
       rdf:about=""><dc:format>image/svg+xml</dc:format><dc:type
         rdf:resource="http://purl.org/dc/dcmitype/StillImage" /></cc:Work></rdf:RDF></metadata><defs
   id="defs944" /><sodipodi:namedview
   inkscape:current-layer="Layer-1"
   inkscape:window-maximized="1"
   inkscape:window-y="23"
   inkscape:window-x="0"
   inkscape:cy="159.98458"
   inkscape:cx="75.816341"
   inkscape:zoom="2.298"
   showgrid="false"
   id="namedview942"
   inkscape:window-height="1395"
   inkscape:window-width="2560"
   inkscape:pageshadow="2"
   inkscape:pageopacity="0"
   guidetolerance="10"
   gridtolerance="10"
   objecttolerance="10"
   borderopacity="1"
   bordercolor="#666666"
   pagecolor="#ffffff" />
    <g
   serif:id="Layer 1"
   id="Layer-1">
        <g
   transform="matrix(1,0,0,1,-27.7827,-21.968)"
   id="g6217">
            <g
   transform="matrix(1,0,0,1,18.9595,-7.67145)"
   id="g5124">
                <path
   style="fill:none;stroke:black;stroke-width:2px;"
   d="M261.429,57.762L142.857,122.047L214.286,200.619"
   id="path5112" />
                <g
   transform="matrix(1,0,0,1,0,-30)"
   id="path5114">
                    <path
   id="path834"
   style="fill:none;stroke:black;stroke-width:2px;"
   d="M142.857,152.047L71.429,230.619L35.714,310.619" />
                </g>
                <g
   transform="matrix(1,0,0,1,0,-40)"
   id="path5116">
                    
                </g>
                <path
   style="fill:none;stroke:black;stroke-width:2px;"
   d="M262.857,56.333L380,120.619L311.429,199.19"
   id="path5120" />
                <g
   transform="matrix(1,0,0,1,0,-30)"
   id="path5122">
                    <path
   id="path841"
   style="fill:none;stroke:black;stroke-width:2px;"
   d="M378.571,152.047L452.857,229.19" />
                </g>
            </g>
            <g
   id="g5269">
                <g
   transform="matrix(1,0,0,1,18.9595,-47.6715)"
   id="g5046">
                    <g
   id="g847"
   transform="matrix(1,0,0,1,-24.2857,270)">
                        <g
   id="g3717">
                            <path
   style="fill:white;stroke:black;stroke-width:2px;"
   d="M82.857,59.409C82.857,72.34 72.217,82.981 59.286,82.981C46.355,82.981 35.714,72.34 35.714,59.409C35.714,46.479 46.355,35.838 59.286,35.838C72.217,35.838 82.857,46.479 82.857,59.409L82.857,59.409Z"
   id="path3705" />
                        </g>
                    </g>
                    <g
   id="g851"
   transform="matrix(1,0,0,1,47.1429,270)">
                        <g
   id="g4337">
                            
                        </g>
                    </g>
                </g>
                <g
   id="g856"
   transform="matrix(1,0,0,1,221.879,-9.10005)">
                    <g
   id="g4620">
                        <path
   style="fill:white;stroke:black;stroke-width:2px;"
   d="M82.857,59.409C82.857,72.34 72.217,82.981 59.286,82.981C46.355,82.981 35.714,72.34 35.714,59.409C35.714,46.479 46.355,35.838 59.286,35.838C72.217,35.838 82.857,46.479 82.857,59.409L82.857,59.409Z"
   id="path4622" />
                    </g>
                </g>
                <g
   transform="matrix(1,0,0,1,0,-30)"
   id="g5252">
                    <g
   id="g860"
   transform="matrix(1,0,0,1,32.5928,162.281)">
                        <g
   id="g4443">
                            <path
   style="fill:white;stroke:black;stroke-width:2px;"
   d="M82.857,59.409C82.857,72.34 72.217,82.981 59.286,82.981C46.355,82.981 35.714,72.34 35.714,59.409C35.714,46.479 46.355,35.838 59.286,35.838C72.217,35.838 82.857,46.479 82.857,59.409L82.857,59.409Z"
   id="path4445" />
                        </g>
                    </g>
                    <g
   id="g864"
   transform="matrix(1,0,0,1,175.45,162.281)">
                        <g
   id="g4453">
                            <path
   style="fill:white;stroke:black;stroke-width:2px;"
   d="M82.857,59.409C82.857,72.34 72.217,82.981 59.286,82.981C46.355,82.981 35.714,72.34 35.714,59.409C35.714,46.479 46.355,35.838 59.286,35.838C72.217,35.838 82.857,46.479 82.857,59.409L82.857,59.409Z"
   id="path4455" />
                        </g>
                    </g>
                    <g
   id="g868"
   transform="matrix(1,0,0,1,103.307,84.2332)">
                        <g
   id="g4014">
                            <path
   style="fill:white;stroke:black;stroke-width:2px;"
   d="M82.857,59.409C82.857,72.34 72.217,82.981 59.286,82.981C46.355,82.981 35.714,72.34 35.714,59.409C35.714,46.479 46.355,35.838 59.286,35.838C72.217,35.838 82.857,46.479 82.857,59.409L82.857,59.409Z"
   id="path4016" />
                        </g>
                    </g>
                </g>
                <g
   transform="matrix(1,0,0,1,-3.12153,-37.6715)"
   id="g4891">
                    <g
   id="g873"
   transform="matrix(1,0,0,1,271.429,169.952)">
                        <g
   id="g4871">
                            <path
   style="fill:white;stroke:black;stroke-width:2px;"
   d="M82.857,59.409C82.857,72.34 72.217,82.981 59.286,82.981C46.355,82.981 35.714,72.34 35.714,59.409C35.714,46.479 46.355,35.838 59.286,35.838C72.217,35.838 82.857,46.479 82.857,59.409L82.857,59.409Z"
   id="path4602" />
                        </g>
                    </g>
                    <g
   id="g878"
   transform="matrix(1,0,0,1,414.286,169.952)">
                        <g
   id="g4803">
                            <g
   id="g4750">
                                <path
   style="fill:white;stroke:black;stroke-width:2px;"
   d="M82.857,59.409C82.857,72.34 72.217,82.981 59.286,82.981C46.355,82.981 35.714,72.34 35.714,59.409C35.714,46.479 46.355,35.838 59.286,35.838C72.217,35.838 82.857,46.479 82.857,59.409L82.857,59.409Z"
   id="path4752" />
                            </g>
                        </g>
                    </g>
                    <g
   id="g882"
   transform="matrix(1,0,0,1,342.143,91.9047)">
                        <g
   id="g4861">
                            <path
   style="fill:white;stroke:black;stroke-width:2px;"
   d="M82.857,59.409C82.857,72.34 72.217,82.981 59.286,82.981C46.355,82.981 35.714,72.34 35.714,59.409C35.714,46.479 46.355,35.838 59.286,35.838C72.217,35.838 82.857,46.479 82.857,59.409L82.857,59.409Z"
   id="path4863" />
                        </g>
                    </g>
                </g>
            </g>
        </g>
        <g
   id="g891"
   transform="matrix(1,0,0,1,22.9809,2.40095)">
            <text
   id="text889"
   style="font-family:'SourceSansPro-Bold', 'Source Sans Pro', sans-serif;font-weight:700;font-size:24px;fill:rgb(255,102,0);"
   y="30.568px"
   x="99.796px">r<tspan
   id="tspan887"
   y="30.568px "
   x="108.676px ">a</tspan>cine</text>
        </g>
        <g
   id="g897"
   transform="matrix(1,0,0,1,139.639,239.415)">
            <text
   id="text895"
   style="font-family:'SourceSansPro-Bold', 'Source Sans Pro', sans-serif;font-weight:700;font-size:24px;fill:rgb(255,102,0);"
   y="30.568px"
   x="99.796px">f<tspan
   id="tspan893"
   y="30.568px "
   x="107.74px ">e</tspan>uilles</text>
        </g>
        <g
   id="g905"
   transform="matrix(1,0,0,1,126.723,58.1254)">
            <text
   id="text899"
   style="font-family:'SourceSansPro-Bold', 'Source Sans Pro', sans-serif;font-weight:700;font-size:24px;fill:rgb(255,102,0);"
   y="30.568px"
   x="116.212px">nœud</text>
            <text
   id="text903"
   style="font-family:'SourceSansPro-Bold', 'Source Sans Pro', sans-serif;font-weight:700;font-size:24px;fill:rgb(255,102,0);"
   y="54.568px"
   x="99.796px">int<tspan
   id="tspan901"
   y="54.568px "
   x="128.908px ">e</tspan>rne</text>
        </g>
        <path
   id="path907"
   style="fill:rgb(255,102,0);"
   d="M223.059,203.399L221.661,196.838L227.749,199.656L223.059,203.399Z" />
        <path
   id="path909"
   style="fill:none;stroke:rgb(255,102,0);stroke-width:2px;stroke-linecap:round;stroke-linejoin:round;stroke-miterlimit:1.5;"
   d="M260.178,245.091C260.178,245.091 233.709,211.932 224.655,200.59" />
        <path
   id="path911"
   style="fill:rgb(255,102,0);"
   d="M288.099,200.655L294.021,197.504L292.988,204.132L288.099,200.655Z" />
        <path
   id="path913"
   style="fill:none;stroke:rgb(255,102,0);stroke-width:2px;stroke-linecap:round;stroke-linejoin:round;stroke-miterlimit:1.5;"
   d="M260.178,245.091C260.178,245.091 283.145,212.796 291.239,201.416" />
        <path
   id="path915"
   style="fill:rgb(255,102,0);"
   d="M414.007,191.548L420.643,192.531L415.875,197.25L414.007,191.548Z" />
        <path
   id="path917"
   style="fill:none;stroke:rgb(255,102,0);stroke-width:2px;stroke-linecap:round;stroke-linejoin:round;stroke-miterlimit:1.5;"
   d="M260.178,245.091C260.178,245.091 389.927,202.592 416.081,194.026" />
        <path
   inkscape:connector-curvature="0"
   id="path919"
   style="fill:#ff6600"
   d="m 57.006463,263.31534 -6.239471,-2.46232 5.714718,-3.51373 z" />
        <path
   sodipodi:nodetypes="cc"
   inkscape:connector-curvature="0"
   id="path921"
   style="fill:none;stroke:#ff6600;stroke-width:2px;stroke-linecap:round;stroke-linejoin:round;stroke-miterlimit:1.5"
   d="m 260.178,245.091 c 0,0 -181.808709,12.35763 -205.570709,15.54063" />
        <g
   id="g929"
   transform="matrix(0.637445,0,0,0.637445,83.4449,-99.6423)">
            <g
   id="g927"
   transform="matrix(1.56876,-0,-0,1.56876,-130.905,156.315)">
                <path
   id="path923"
   style="fill:rgb(255,102,0);"
   d="M218.741,22.732L224.741,25.732L218.741,28.732L218.741,22.732Z" />
                <path
   id="path925"
   style="fill:none;stroke:rgb(255,102,0);stroke-width:2px;stroke-linecap:round;stroke-linejoin:round;stroke-miterlimit:1.5;"
   d="M196.722,25.732L219.941,25.732" />
            </g>
        </g>
        <g
   id="g937"
   transform="matrix(0.661366,0,0,0.661366,194.709,-37.7538)">
            <g
   id="g935"
   transform="matrix(1.51202,-0,-0,1.51202,-294.405,57.0845)">
                <path
   id="path931"
   style="fill:rgb(255,102,0);"
   d="M335.308,89.326L341.308,92.326L335.308,95.326L335.308,89.326Z" />
                <path
   id="path933"
   style="fill:none;stroke:rgb(255,102,0);stroke-width:2px;stroke-linecap:round;stroke-linejoin:round;stroke-miterlimit:1.5;"
   d="M312.238,92.326L336.508,92.326" />
            </g>
        </g>
    </g>
</svg>
