<?xml version="1.0" encoding="UTF-8" standalone="no"?><!DOCTYPE svg PUBLIC "-//W3C//DTD SVG 1.1//EN" "http://www.w3.org/Graphics/SVG/1.1/DTD/svg11.dtd"><svg width="100%" height="100%" viewBox="0 0 1334 750" version="1.1" xmlns="http://www.w3.org/2000/svg" xmlns:xlink="http://www.w3.org/1999/xlink" xml:space="preserve" xmlns:serif="http://www.serif.com/" style="fill-rule:evenodd;clip-rule:evenodd;"><g id="Layer-1" serif:id="Layer 1"><path id="path5122" d="M261.892,123.747l-157.693,366.537" style="fill:none;stroke:#000;stroke-width:8.33px;"/><path id="path5114" d="M1218.7,544.43l-183.735,-433.938" style="fill:none;stroke:#000;stroke-width:8.33px;"/><path id="path51221" serif:id="path5122" d="M848.303,641.667l179.429,-533.552" style="fill:none;stroke:#000;stroke-width:8.33px;"/><path id="path51222" serif:id="path5122" d="M105.999,491.902l417.343,-129.303" style="fill:none;stroke:#000;stroke-width:8.33px;"/><path id="path51223" serif:id="path5122" d="M847.023,644.335l-324.941,-282.082" style="fill:none;stroke:#000;stroke-width:8.33px;"/><path id="path51224" serif:id="path5122" d="M1223.31,551.589l-370.012,94.237" style="fill:none;stroke:#000;stroke-width:8.33px;"/><path id="path51141" serif:id="path5114" d="M264.856,125.867l255.892,234.371" style="fill:none;stroke:#000;stroke-width:8.33px;"/><path id="path51225" serif:id="path5122" d="M524.93,359.631l502.998,-253.724" style="fill:none;stroke:#000;stroke-width:8.33px;"/><g><path id="path4622" d="M620.81,360.756c0,53.878 -44.336,98.214 -98.214,98.214c-53.879,0 -98.215,-44.336 -98.215,-98.214c0,-53.879 44.336,-98.215 98.215,-98.215c53.878,0 98.214,44.336 98.214,98.215l0,0Z" style="fill:#fff;stroke:#000;stroke-width:8.33px;"/><text x="494.887px" y="387.922px" style="font-family:'SourceSansPro-Bold', 'Source Sans Pro', sans-serif;font-weight:700;font-size:83.333px;fill:#f60;">N</text></g><g><path id="path4455" d="M201.034,491.001c0,53.879 -44.335,98.214 -98.214,98.214c-53.879,0 -98.214,-44.335 -98.214,-98.214c0,-53.879 44.335,-98.214 98.214,-98.214c53.879,0 98.214,44.335 98.214,98.214l0,0Z" style="fill:#fff;stroke:#000;stroke-width:8.33px;"/><text x="74.737px" y="518.168px" style="font-family:'SourceSansPro-Bold', 'Source Sans Pro', sans-serif;font-weight:700;font-size:83.333px;fill:#f60;">H</text></g><g><path id="path4016" d="M361.626,120.114c0,53.878 -44.335,98.214 -98.214,98.214c-53.879,0 -98.214,-44.336 -98.214,-98.214c0,-53.879 44.335,-98.215 98.214,-98.215c53.879,0 98.214,44.336 98.214,98.215l0,0Z" style="fill:#fff;stroke:#000;stroke-width:8.33px;"/><text x="231.662px" y="147.28px" style="font-family:'SourceSansPro-Bold', 'Source Sans Pro', sans-serif;font-weight:700;font-size:83.333px;fill:#f60;">M</text></g><g><path id="path4602" d="M1324.09,545.383c0,53.878 -44.335,98.214 -98.214,98.214c-53.879,0 -98.214,-44.336 -98.214,-98.214c0,-53.879 44.335,-98.215 98.214,-98.215c53.879,0 98.214,44.336 98.214,98.215l0,0Z" style="fill:#fff;stroke:#000;stroke-width:8.33px;"/><text x="1202.58px" y="572.549px" style="font-family:'SourceSansPro-Bold', 'Source Sans Pro', sans-serif;font-weight:700;font-size:83.333px;fill:#f60;">L</text></g><g><path id="path4752" d="M947.112,645.083c0,53.879 -44.336,98.214 -98.215,98.214c-53.878,0 -98.214,-44.335 -98.214,-98.214c0,-53.879 44.336,-98.215 98.214,-98.215c53.879,0 98.215,44.336 98.215,98.215l0,0Z" style="fill:#fff;stroke:#000;stroke-width:8.33px;"/><text x="825.689px" y="672.249px" style="font-family:'SourceSansPro-Bold', 'Source Sans Pro', sans-serif;font-weight:700;font-size:83.333px;fill:#f60;">S</text></g><g><path id="path4863" d="M1137.65,104.811c0,53.879 -44.335,98.214 -98.214,98.214c-53.879,0 -98.214,-44.335 -98.214,-98.214c0,-53.879 44.335,-98.214 98.214,-98.214c53.879,0 98.214,44.335 98.214,98.214l0,0Z" style="fill:#fff;stroke:#000;stroke-width:8.33px;"/><text x="1012.89px" y="131.978px" style="font-family:'SourceSansPro-Bold', 'Source Sans Pro', sans-serif;font-weight:700;font-size:83.333px;fill:#f60;">P</text></g></g></svg>