<?xml version="1.0" encoding="UTF-8" standalone="no"?>
<svg
   xmlns:serif="http://www.serif.com/"
   xmlns:dc="http://purl.org/dc/elements/1.1/"
   xmlns:cc="http://creativecommons.org/ns#"
   xmlns:rdf="http://www.w3.org/1999/02/22-rdf-syntax-ns#"
   xmlns:svg="http://www.w3.org/2000/svg"
   xmlns="http://www.w3.org/2000/svg"
   xmlns:sodipodi="http://sodipodi.sourceforge.net/DTD/sodipodi-0.dtd"
   xmlns:inkscape="http://www.inkscape.org/namespaces/inkscape"
   inkscape:version="1.0 (4035a4f, 2020-05-01)"
   sodipodi:docname="oriented_simple_graphe.svg"
   id="svg74"
   style="fill-rule:evenodd;clip-rule:evenodd;"
   xml:space="preserve"
   version="1.1"
   viewBox="0 0 1667 896"
   height="100%"
   width="100%"><metadata
     id="metadata80"><rdf:RDF><cc:Work
         rdf:about=""><dc:format>image/svg+xml</dc:format><dc:type
           rdf:resource="http://purl.org/dc/dcmitype/StillImage" /></cc:Work></rdf:RDF></metadata><defs
     id="defs78" /><sodipodi:namedview
     inkscape:current-layer="directed"
     inkscape:window-maximized="0"
     inkscape:window-y="23"
     inkscape:window-x="0"
     inkscape:cy="448"
     inkscape:cx="668.85802"
     inkscape:zoom="0.63167367"
     showgrid="false"
     id="namedview76"
     inkscape:window-height="826"
     inkscape:window-width="1406"
     inkscape:pageshadow="2"
     inkscape:pageopacity="0"
     guidetolerance="10"
     gridtolerance="10"
     objecttolerance="10"
     borderopacity="1"
     bordercolor="#666666"
     pagecolor="#ffffff" /><g
     serif:id="Layer 1"
     id="Layer-1"><g
       id="directed"><path
         d="M987.745,686.58l25.437,11.584l-5.995,-27.301l-19.442,15.717Z"
         id="path5114" /><path
         id="path11"
         style="fill:none;stroke:#000;stroke-width:8.33px;"
         d="M1000.61,682.61c-51.733,-63.997 -245.44,-303.629 -245.44,-303.629" /><path
         d="M241.329,238.855l-20.817,-18.651l-2.431,27.845l23.248,-9.194Z"
         id="path5122" /><path
         id="path14"
         style="fill:none;stroke:#000;stroke-width:8.33px;"
         d="M227.866,238.802c19.028,48.116 68.4,172.961 68.4,172.961" /><path
         d="M864.062,301.426l-17.135,22.082l27.947,0.459l-10.812,-22.541Z"
         serif:id="path5122"
         id="path51221" /><path
         id="path17"
         style="fill:none;stroke:#000;stroke-width:8.33px;"
         d="M864.96,314.859c80.638,-38.677 404.227,-193.883 404.227,-193.883" /><path
         d="M1102.88,648.567l4.926,27.513l19.055,-20.449l-23.981,-7.064Z"
         serif:id="path5122"
         id="path51222" /><path
         id="path20"
         style="fill:none;stroke:#000;stroke-width:8.33px;"
         d="M1113.45,656.895c28.766,-97.657 157.568,-534.936 157.568,-534.936" /><path
         d="M1416.06,665.068l27.676,3.913l-19.736,19.792l-7.94,-23.705Z"
         serif:id="path5122"
         id="path51223" /><path
         id="path23"
         style="fill:none;stroke:#000;stroke-width:8.33px;"
         d="M1078.82,791.203c0,0 271.064,-90.789 345.95,-115.87" /><path
         d="M645.467,307.707l18.189,21.222l-27.891,1.819l9.702,-23.041Z"
         serif:id="path5114"
         id="path51141" /><path
         id="path26"
         style="fill:none;stroke:#000;stroke-width:8.33px;"
         d="M192.082,130.36c0,0 366.051,154.136 453.142,190.808" /><path
         d="M1145.78,105.331l25.047,12.407l-24.954,12.593l-0.093,-25Z"
         serif:id="path5122"
         id="path51224" /><path
         id="path29"
         style="fill:none;stroke:#000;stroke-width:8.33px;"
         d="M188.8,121.394c0,0 822.488,-3.062 962.026,-3.582" /><path
         d="M1466.14,533.263l22.469,16.625l-0.181,-27.95l-22.288,11.325Z"
         serif:id="path5122"
         id="path51225" /><path
         id="path32"
         style="fill:none;stroke:#000;stroke-width:8.33px;"
         d="M1479.55,532.058c-41.707,-82.086 -213.212,-419.629 -213.212,-419.629" /></g><g
       id="g41"><path
         style="fill:#fff;stroke:#000;stroke-width:8.33px;"
         d="M853.509,372.182c0,53.879 -44.336,98.214 -98.214,98.214c-53.879,0 -98.215,-44.335 -98.215,-98.214c0,-53.879 44.336,-98.214 98.215,-98.214c53.878,0 98.214,44.335 98.214,98.214l0,0Z"
         id="path4622" /><text
         id="text39"
         style="font-family:'SourceSansPro-Bold', 'Source Sans Pro', sans-serif;font-weight:700;font-size:83.333px;fill:#f60;"
         y="397.179px"
         x="732.135px">a</text></g><g
       id="g46"><path
         style="fill:#fff;stroke:#000;stroke-width:8.33px;"
         d="M219.255,743.001c0,53.878 -44.336,98.214 -98.215,98.214c-53.878,0 -98.214,-44.336 -98.214,-98.214c0,-53.879 44.336,-98.215 98.214,-98.215c53.879,0 98.215,44.336 98.215,98.215l0,0Z"
         id="path4445" /><text
         id="text44"
         style="font-family:'SourceSansPro-Bold', 'Source Sans Pro', sans-serif;font-weight:700;font-size:83.333px;fill:#f60;"
         y="771.344px"
         x="98.609px">d</text></g><g
       id="g51"><path
         style="fill:#fff;stroke:#000;stroke-width:8.33px;"
         d="M433.733,502.427c0,53.879 -44.335,98.215 -98.214,98.215c-53.879,0 -98.214,-44.336 -98.214,-98.215c0,-53.878 44.335,-98.214 98.214,-98.214c53.879,0 98.214,44.336 98.214,98.214l0,0Z"
         id="path4455" /><text
         id="text49"
         style="font-family:'SourceSansPro-Bold', 'Source Sans Pro', sans-serif;font-weight:700;font-size:83.333px;fill:#f60;"
         y="526.604px"
         x="310.755px">e</text></g><g
       id="g56"><path
         style="fill:#fff;stroke:#000;stroke-width:8.33px;"
         d="M288.264,120.887c0,53.879 -44.336,98.215 -98.214,98.215c-53.879,0 -98.215,-44.336 -98.215,-98.215c0,-53.878 44.336,-98.214 98.215,-98.214c53.878,0 98.214,44.336 98.214,98.214l0,0Z"
         id="path4016" /><text
         id="text54"
         style="font-family:'SourceSansPro-Bold', 'Source Sans Pro', sans-serif;font-weight:700;font-size:83.333px;fill:#f60;"
         y="148.65px"
         x="168.049px">b</text></g><g
       id="g61"><path
         style="fill:#fff;stroke:#000;stroke-width:8.33px;"
         d="M1180.15,776.666c0,53.878 -44.335,98.214 -98.214,98.214c-53.879,0 -98.215,-44.336 -98.215,-98.214c0,-53.879 44.336,-98.215 98.215,-98.215c53.879,0 98.214,44.336 98.214,98.215l0,0Z"
         id="path4602" /><text
         id="text59"
         style="font-family:'SourceSansPro-Bold', 'Source Sans Pro', sans-serif;font-weight:700;font-size:83.333px;fill:#f60;"
         y="804.509px"
         x="1065.89px">f</text></g><g
       id="g66"><path
         style="fill:#fff;stroke:#000;stroke-width:8.33px;"
         d="M1642.66,636.343c0,53.879 -44.336,98.214 -98.214,98.214c-53.879,0 -98.215,-44.335 -98.215,-98.214c0,-53.879 44.336,-98.214 98.215,-98.214c53.878,0 98.214,44.335 98.214,98.214l0,0Z"
         id="path4752" /><text
         id="text64"
         style="font-family:'SourceSansPro-Bold', 'Source Sans Pro', sans-serif;font-weight:700;font-size:83.333px;fill:#f60;"
         y="656.353px"
         x="1519.61px">g</text></g><g
       id="g71"><path
         style="fill:#fff;stroke:#000;stroke-width:8.33px;"
         d="M1370.35,116.237c0,53.879 -44.335,98.215 -98.214,98.215c-53.879,0 -98.214,-44.336 -98.214,-98.215c0,-53.878 44.335,-98.214 98.214,-98.214c53.879,0 98.214,44.336 98.214,98.214l0,0Z"
         id="path4863" /><text
         id="text69"
         style="font-family:'SourceSansPro-Bold', 'Source Sans Pro', sans-serif;font-weight:700;font-size:83.333px;fill:#f60;"
         y="139.833px"
         x="1248.18px">c</text></g></g></svg>
