<?xml version="1.0" encoding="UTF-8" standalone="no"?><!DOCTYPE svg PUBLIC "-//W3C//DTD SVG 1.1//EN" "http://www.w3.org/Graphics/SVG/1.1/DTD/svg11.dtd"><svg width="100%" height="100%" viewBox="0 0 1667 896" version="1.1" xmlns="http://www.w3.org/2000/svg" xmlns:xlink="http://www.w3.org/1999/xlink" xml:space="preserve" xmlns:serif="http://www.serif.com/" style="fill-rule:evenodd;clip-rule:evenodd;"><g id="Layer-1" serif:id="Layer 1"><g id="undirected"><path id="path5122" d="M219.334,216.802l76.932,194.961" style="fill:none;stroke:#000;stroke-width:8.33px;"/><path id="path51221" serif:id="path5122" d="M837.509,424.486c82.939,58.698 144.078,131.363 186.669,215.912c22.555,44.775 39.908,92.882 52.543,144.013" style="fill:none;stroke:#000;stroke-width:8.33px;"/><path id="path51222" serif:id="path5122" d="M755.027,374.52c33.756,148.22 110.462,267.22 238.878,358.623" style="fill:none;stroke:#000;stroke-width:8.33px;"/><path id="path51223" serif:id="path5122" d="M1490.53,552.038l-224.195,-439.609" style="fill:none;stroke:#000;stroke-width:8.33px;"/><path id="path51224" serif:id="path5122" d="M844.803,324.499l424.384,-203.523" style="fill:none;stroke:#000;stroke-width:8.33px;"/><path id="path51225" serif:id="path5122" d="M1106.77,679.24l164.254,-557.281" style="fill:none;stroke:#000;stroke-width:8.33px;"/><path id="path51226" serif:id="path5122" d="M1078.82,791.203l368.803,-123.367" style="fill:none;stroke:#000;stroke-width:8.33px;"/><path id="path5114" d="M192.082,130.36l471.574,198.569" style="fill:none;stroke:#000;stroke-width:8.33px;"/><path id="path51227" serif:id="path5122" d="M188.8,121.394l982.026,-3.656" style="fill:none;stroke:#000;stroke-width:8.33px;"/><path id="path51228" serif:id="path5122" d="M391.364,586.785c150.163,144.269 229.509,-145.041 41.925,-108.662" style="fill:none;stroke:#000;stroke-width:8.33px;"/></g><g><path id="path4622" d="M853.509,372.182c0,53.879 -44.336,98.214 -98.214,98.214c-53.879,0 -98.215,-44.335 -98.215,-98.214c0,-53.879 44.336,-98.214 98.215,-98.214c53.878,0 98.214,44.335 98.214,98.214l0,0Z" style="fill:#fff;stroke:#000;stroke-width:8.33px;"/><text x="732.135px" y="397.179px" style="font-family:'SourceSansPro-Bold', 'Source Sans Pro', sans-serif;font-weight:700;font-size:83.333px;fill:#f60;">a</text></g><g><path id="path4445" d="M219.255,743.001c0,53.878 -44.336,98.214 -98.215,98.214c-53.878,0 -98.214,-44.336 -98.214,-98.214c0,-53.879 44.336,-98.215 98.214,-98.215c53.879,0 98.215,44.336 98.215,98.215l0,0Z" style="fill:#fff;stroke:#000;stroke-width:8.33px;"/><text x="98.609px" y="771.344px" style="font-family:'SourceSansPro-Bold', 'Source Sans Pro', sans-serif;font-weight:700;font-size:83.333px;fill:#f60;">d</text></g><g><path id="path4455" d="M433.733,502.427c0,53.879 -44.335,98.215 -98.214,98.215c-53.879,0 -98.214,-44.336 -98.214,-98.215c0,-53.878 44.335,-98.214 98.214,-98.214c53.879,0 98.214,44.336 98.214,98.214l0,0Z" style="fill:#fff;stroke:#000;stroke-width:8.33px;"/><text x="310.755px" y="526.604px" style="font-family:'SourceSansPro-Bold', 'Source Sans Pro', sans-serif;font-weight:700;font-size:83.333px;fill:#f60;">e</text></g><g><path id="path4016" d="M288.264,120.887c0,53.879 -44.336,98.215 -98.214,98.215c-53.879,0 -98.215,-44.336 -98.215,-98.215c0,-53.878 44.336,-98.214 98.215,-98.214c53.878,0 98.214,44.336 98.214,98.214l0,0Z" style="fill:#fff;stroke:#000;stroke-width:8.33px;"/><text x="168.049px" y="148.65px" style="font-family:'SourceSansPro-Bold', 'Source Sans Pro', sans-serif;font-weight:700;font-size:83.333px;fill:#f60;">b</text></g><g><path id="path4602" d="M1180.15,776.666c0,53.878 -44.335,98.214 -98.214,98.214c-53.879,0 -98.215,-44.336 -98.215,-98.214c0,-53.879 44.336,-98.215 98.215,-98.215c53.879,0 98.214,44.336 98.214,98.215l0,0Z" style="fill:#fff;stroke:#000;stroke-width:8.33px;"/><text x="1065.89px" y="804.509px" style="font-family:'SourceSansPro-Bold', 'Source Sans Pro', sans-serif;font-weight:700;font-size:83.333px;fill:#f60;">f</text></g><g><path id="path4752" d="M1642.66,636.343c0,53.879 -44.336,98.214 -98.214,98.214c-53.879,0 -98.215,-44.335 -98.215,-98.214c0,-53.879 44.336,-98.214 98.215,-98.214c53.878,0 98.214,44.335 98.214,98.214l0,0Z" style="fill:#fff;stroke:#000;stroke-width:8.33px;"/><text x="1519.61px" y="656.353px" style="font-family:'SourceSansPro-Bold', 'Source Sans Pro', sans-serif;font-weight:700;font-size:83.333px;fill:#f60;">g</text></g><g><path id="path4863" d="M1370.35,116.237c0,53.879 -44.335,98.215 -98.214,98.215c-53.879,0 -98.214,-44.336 -98.214,-98.215c0,-53.878 44.335,-98.214 98.214,-98.214c53.879,0 98.214,44.336 98.214,98.214l0,0Z" style="fill:#fff;stroke:#000;stroke-width:8.33px;"/><text x="1248.18px" y="139.833px" style="font-family:'SourceSansPro-Bold', 'Source Sans Pro', sans-serif;font-weight:700;font-size:83.333px;fill:#f60;">c</text></g><path d="M863.812,675.093l27.948,-0.344l-16.493,22.565l-11.455,-22.221Z" style="fill:#f60;"/><path d="M802.301,720.865c0,0 45.594,-23.504 71.682,-36.952" style="fill:none;stroke:#f60;stroke-width:8.33px;stroke-linecap:round;stroke-linejoin:round;stroke-miterlimit:1.5;"/><path d="M895.253,536.14l23.372,-15.329l-1.76,27.895l-21.612,-12.566Z" style="fill:#f60;"/><path d="M802.301,720.865c0,0 78.026,-134.188 106.271,-182.764" style="fill:none;stroke:#f60;stroke-width:8.33px;stroke-linecap:round;stroke-linejoin:round;stroke-miterlimit:1.5;"/><g transform="matrix(4.16667,0,0,4.16667,-17.7844,585.172)"><text x="129.246px" y="30.568px" style="font-family:'SourceSansPro-Bold', 'Source Sans Pro', sans-serif;font-weight:700;font-size:22px;fill:#f60;">ar<tspan x="149.376px 160.552px 168.582px " y="30.568px 30.568px 30.568px ">ête</tspan>s</text><text x="97.544px" y="52.568px" style="font-family:'SourceSansPro-Bold', 'Source Sans Pro', sans-serif;font-weight:700;font-size:22px;fill:#f60;">multiples</text></g><path d="M493.471,432.029l-12.19,25.153l-12.809,-24.844l24.999,-0.309Z" style="fill:#f60;"/><path d="M480.61,402.999c0,0 0.232,18.745 0.423,34.184" style="fill:none;stroke:#f60;stroke-width:8.33px;stroke-linecap:round;stroke-linejoin:round;stroke-miterlimit:1.5;"/><text x="316.932px" y="380.23px" style="font-family:'SourceSansPro-Bold', 'Source Sans Pro', sans-serif;font-weight:700;font-size:91.667px;fill:#f60;">boucle</text></g></svg>