<?xml version="1.0" encoding="UTF-8" standalone="no"?>
<!DOCTYPE svg PUBLIC "-//W3C//DTD SVG 1.1//EN" "http://www.w3.org/Graphics/SVG/1.1/DTD/svg11.dtd">
<svg width="100%" height="100%" viewBox="0 0 400 215" version="1.1" xmlns="http://www.w3.org/2000/svg" xmlns:xlink="http://www.w3.org/1999/xlink" xml:space="preserve" xmlns:serif="http://www.serif.com/" style="fill-rule:evenodd;clip-rule:evenodd;">
    <g id="Layer-1" serif:id="Layer 1">
        <g id="path5122" transform="matrix(1,0,0,1,-333.259,-122.913)">
            <g transform="matrix(1,-0,-0,1,333.259,122.913)">
                <path d="M57.919,57.325L52.923,52.849L52.339,59.532L57.919,57.325Z"/>
                <path d="M54.688,57.313C59.255,68.86 71.104,98.823 71.104,98.823" style="fill:none;stroke:black;stroke-width:2px;"/>
            </g>
        </g>
        <g id="path51221" serif:id="path5122" transform="matrix(1,0,0,1,-197.365,-62.1624)">
            <g transform="matrix(1,-0,-0,1,197.365,62.1624)">
                <path d="M207.616,102.998L201.002,101.877L204.074,107.84L207.616,102.998Z"/>
                <path d="M204.876,104.711C222.826,118.279 236.256,134.744 245.803,153.696C251.216,164.441 255.381,175.987 258.413,188.259" style="fill:none;stroke:black;stroke-width:2px;"/>
            </g>
        </g>
        <g id="path51222" serif:id="path5122" transform="matrix(1,0,0,1,-197.365,-62.1624)">
            <g transform="matrix(1,-0,-0,1,197.365,62.1624)">
                <path d="M235.473,169.987L238.537,175.954L231.925,174.825L235.473,169.987Z"/>
                <path d="M181.206,89.885C188.963,123.942 206.168,151.572 234.667,173.115" style="fill:none;stroke:black;stroke-width:2px;"/>
            </g>
        </g>
        <g id="path51223" serif:id="path5122" transform="matrix(1,0,0,1,-197.365,-62.1624)">
            <g transform="matrix(1,-0,-0,1,197.365,62.1624)">
                <path d="M207.375,72.342L203.262,77.642L209.97,77.752L207.375,72.342Z"/>
                <path d="M207.59,75.566C226.943,66.284 304.605,29.034 304.605,29.034" style="fill:none;stroke:black;stroke-width:2px;"/>
            </g>
        </g>
        <g id="path51224" serif:id="path5122" transform="matrix(1,0,0,1,-197.365,-62.1624)">
            <g transform="matrix(1,-0,-0,1,197.365,62.1624)">
                <path d="M264.69,155.656L265.873,162.259L270.446,157.351L264.69,155.656Z"/>
                <path d="M267.229,157.655C274.133,134.217 305.045,29.27 305.045,29.27" style="fill:none;stroke:black;stroke-width:2px;"/>
            </g>
        </g>
        <g id="path51225" serif:id="path5122" transform="matrix(1,0,0,1,-119.655,37.8416)">
            <g transform="matrix(1,-0,-0,1,119.655,-37.8416)">
                <path d="M339.853,159.616L346.495,160.555L341.759,165.306L339.853,159.616Z"/>
                <path d="M258.916,189.889C258.916,189.889 323.972,168.099 341.944,162.08" style="fill:none;stroke:black;stroke-width:2px;"/>
            </g>
        </g>
        <g id="path5114" transform="matrix(1,0,0,1,-80.8232,-76.6395)">
            <g transform="matrix(1,-0,-0,1,80.8232,76.6395)">
                <path d="M154.912,73.85L159.278,78.943L152.584,79.379L154.912,73.85Z"/>
                <path d="M46.1,31.286C46.1,31.286 133.952,68.279 154.854,77.08" style="fill:none;stroke:black;stroke-width:2px;"/>
            </g>
        </g>
        <g id="path51226" serif:id="path5122" transform="matrix(1,0,0,1,-333.259,-122.913)">
            <g transform="matrix(1,-0,-0,1,333.259,122.913)">
                <path d="M274.987,25.279L280.998,28.257L275.009,31.279L274.987,25.279Z"/>
                <path d="M45.312,29.135C45.312,29.135 242.709,28.4 276.198,28.275" style="fill:none;stroke:black;stroke-width:2px;"/>
            </g>
        </g>
        <g id="path51227" serif:id="path5122" transform="matrix(1,0,0,1,-333.259,-122.913)">
            <g transform="matrix(1,-0,-0,1,333.259,122.913)">
                <path d="M351.873,127.983L357.265,131.973L357.222,125.265L351.873,127.983Z"/>
                <path d="M355.091,127.694C345.081,107.993 303.92,26.983 303.92,26.983" style="fill:none;stroke:black;stroke-width:2px;"/>
            </g>
        </g>
        <g id="path51228" serif:id="path5122" transform="matrix(1,0,0,1,-350.37,31.3779)">
            <g transform="matrix(1,-0,-0,1,350.37,-31.3779)">
                <path d="M46.644,153.958L44.849,160.422L51.097,157.979L46.644,153.958Z"/>
                <path d="M48.067,156.859C56.778,147.213 80.173,121.308 80.173,121.308" style="fill:none;stroke:black;stroke-width:2px;"/>
            </g>
        </g>
        <g id="path51229" serif:id="path5122" transform="matrix(1,0,0,1,-350.37,31.3779)">
            <g transform="matrix(1,-0,-0,1,350.37,-31.3779)">
                <path d="M100.414,142.537L93.927,140.828L96.452,147.043L100.414,142.537Z"/>
                <path d="M97.532,143.998C131.184,170.835 147.483,106.315 103.989,114.75" style="fill:none;stroke:black;stroke-width:2px;"/>
            </g>
        </g>
        <g transform="matrix(1,0,0,1,-34.1108,61.9823)">
            <g id="path4622" transform="matrix(1,0,0,1,156.096,-32.0681)">
                <path d="M82.857,59.409C82.857,72.34 72.217,82.981 59.286,82.981C46.355,82.981 35.714,72.34 35.714,59.409C35.714,46.479 46.355,35.838 59.286,35.838C72.217,35.838 82.857,46.479 82.857,59.409L82.857,59.409Z" style="fill:white;stroke:black;stroke-width:2px;"/>
            </g>
            <g transform="matrix(1,0,0,1,53.7056,-13.7736)">
                <text x="156.117px" y="47.114px" style="font-family:'SourceSansPro-Bold', 'Source Sans Pro', sans-serif;font-weight:700;font-size:20px;fill:rgb(255,102,0);">a</text>
            </g>
        </g>
        <g transform="matrix(1,0,0,1,-34.1108,61.9823)">
            <g id="path46221" serif:id="path4622" transform="matrix(1,0,0,1,156.096,-32.0681)">
                <path d="M82.857,59.409C82.857,72.34 72.217,82.981 59.286,82.981C46.355,82.981 35.714,72.34 35.714,59.409C35.714,46.479 46.355,35.838 59.286,35.838C72.217,35.838 82.857,46.479 82.857,59.409L82.857,59.409Z" style="fill:rgb(255,102,0);stroke:black;stroke-width:2px;"/>
            </g>
            <g transform="matrix(1,0,0,1,53.7056,-13.7736)">
                <text x="156.117px" y="47.114px" style="font-family:'SourceSansPro-Bold', 'Source Sans Pro', sans-serif;font-weight:700;font-size:20px;fill:white;">a</text>
            </g>
        </g>
        <g transform="matrix(1,0,0,1,2.95392,9.5979)">
            <g id="path4445" transform="matrix(1,0,0,1,-33.1899,109.313)">
                <path d="M82.857,59.409C82.857,72.34 72.217,82.981 59.286,82.981C46.355,82.981 35.714,72.34 35.714,59.409C35.714,46.479 46.355,35.838 59.286,35.838C72.217,35.838 82.857,46.479 82.857,59.409L82.857,59.409Z" style="fill:white;stroke:black;stroke-width:2px;"/>
            </g>
            <g transform="matrix(1,0,0,1,-135.405,128.411)">
                <text x="156.117px" y="47.114px" style="font-family:'SourceSansPro-Bold', 'Source Sans Pro', sans-serif;font-weight:700;font-size:20px;fill:rgb(255,102,0);">d</text>
            </g>
        </g>
        <g transform="matrix(1,0,0,1,-88.4284,-48.1397)">
            <g id="path4455" transform="matrix(1,0,0,1,109.667,109.313)">
                <path d="M82.857,59.409C82.857,72.34 72.217,82.981 59.286,82.981C46.355,82.981 35.714,72.34 35.714,59.409C35.714,46.479 46.355,35.838 59.286,35.838C72.217,35.838 82.857,46.479 82.857,59.409L82.857,59.409Z" style="fill:white;stroke:black;stroke-width:2px;"/>
            </g>
            <g transform="matrix(1,0,0,1,6.89225,127.411)">
                <text x="156.117px" y="47.114px" style="font-family:'SourceSansPro-Bold', 'Source Sans Pro', sans-serif;font-weight:700;font-size:20px;fill:rgb(255,102,0);">e</text>
            </g>
        </g>
        <g transform="matrix(1,0,0,1,-51.1979,-61.6617)">
            <g id="path4016" transform="matrix(1,0,0,1,37.5241,31.2652)">
                <path d="M82.857,59.409C82.857,72.34 72.217,82.981 59.286,82.981C46.355,82.981 35.714,72.34 35.714,59.409C35.714,46.479 46.355,35.838 59.286,35.838C72.217,35.838 82.857,46.479 82.857,59.409L82.857,59.409Z" style="fill:white;stroke:black;stroke-width:2px;"/>
            </g>
            <g transform="matrix(1,0,0,1,-64.5878,50.2235)">
                <text x="156.117px" y="47.114px" style="font-family:'SourceSansPro-Bold', 'Source Sans Pro', sans-serif;font-weight:700;font-size:20px;fill:rgb(255,102,0);">b</text>
            </g>
        </g>
        <g transform="matrix(1,0,0,1,-2.14573,17.6775)">
            <g id="path4602" transform="matrix(1,0,0,1,202.524,109.313)">
                <path d="M82.857,59.409C82.857,72.34 72.217,82.981 59.286,82.981C46.355,82.981 35.714,72.34 35.714,59.409C35.714,46.479 46.355,35.838 59.286,35.838C72.217,35.838 82.857,46.479 82.857,59.409L82.857,59.409Z" style="fill:white;stroke:black;stroke-width:2px;"/>
            </g>
            <g transform="matrix(1,0,0,1,101.842,128.291)">
                <text x="156.117px" y="47.114px" style="font-family:'SourceSansPro-Bold', 'Source Sans Pro', sans-serif;font-weight:700;font-size:20px;fill:rgb(255,102,0);">f</text>
            </g>
        </g>
        <g transform="matrix(1,0,0,1,-34,-16)">
            <g id="path4752" transform="matrix(1,0,0,1,345.381,109.313)">
                <path d="M82.857,59.409C82.857,72.34 72.217,82.981 59.286,82.981C46.355,82.981 35.714,72.34 35.714,59.409C35.714,46.479 46.355,35.838 59.286,35.838C72.217,35.838 82.857,46.479 82.857,59.409L82.857,59.409Z" style="fill:white;stroke:black;stroke-width:2px;"/>
            </g>
            <g transform="matrix(1,0,0,1,242.589,126.411)">
                <text x="156.117px" y="47.114px" style="font-family:'SourceSansPro-Bold', 'Source Sans Pro', sans-serif;font-weight:700;font-size:20px;fill:rgb(255,102,0);">g</text>
            </g>
        </g>
        <g transform="matrix(1,0,0,1,-27.2119,-62.7777)">
            <g id="path4863" transform="matrix(1,0,0,1,273.238,31.2653)">
                <path d="M82.857,59.409C82.857,72.34 72.217,82.981 59.286,82.981C46.355,82.981 35.714,72.34 35.714,59.409C35.714,46.479 46.355,35.838 59.286,35.838C72.217,35.838 82.857,46.479 82.857,59.409L82.857,59.409Z" style="fill:white;stroke:black;stroke-width:2px;"/>
            </g>
            <g transform="matrix(1,0,0,1,170.658,49.2235)">
                <text x="156.117px" y="47.114px" style="font-family:'SourceSansPro-Bold', 'Source Sans Pro', sans-serif;font-weight:700;font-size:20px;fill:rgb(255,102,0);">c</text>
            </g>
        </g>
        <g transform="matrix(1,0,0,1,-26.9765,163.282)">
            <text x="99.796px" y="30.568px" style="font-family:'SourceSansPro-Bold', 'Source Sans Pro', sans-serif;font-weight:700;font-size:24px;fill:rgb(255,102,0);">successeur</text>
        </g>
        <g transform="matrix(1,0,0,1,3.06748,-10.7206)">
            <text x="99.796px" y="30.568px" style="font-family:'SourceSansPro-Bold', 'Source Sans Pro', sans-serif;font-weight:700;font-size:22px;fill:rgb(255,102,0);">prédécesseurs</text>
        </g>
        <g transform="matrix(1,0,0,1,-61.8545,-8.21063)">
            <g transform="matrix(1,-0,-0,1,61.8545,8.21063)">
                <path d="M226.163,186.301L232.166,189.293L226.17,192.301L226.163,186.301Z" style="fill:rgb(255,102,0);"/>
                <path d="M206.882,189.324C206.882,189.324 220.033,189.308 227.366,189.299" style="fill:none;stroke:rgb(255,102,0);stroke-width:2px;stroke-linecap:round;stroke-linejoin:round;stroke-miterlimit:1.5;"/>
            </g>
        </g>
        <g transform="matrix(-0.661366,0,0,0.661366,194.016,-138.628)">
            <g transform="matrix(-1.51202,0,0,1.51202,293.356,209.609)">
                <path d="M78.372,20.528L72.123,18.088L77.825,14.553L78.372,20.528Z" style="fill:rgb(255,102,0);"/>
                <path d="M99.427,15.587C99.427,15.587 84.732,16.933 76.903,17.65" style="fill:none;stroke:rgb(255,102,0);stroke-width:2px;stroke-linecap:round;stroke-linejoin:round;stroke-miterlimit:1.5;"/>
            </g>
        </g>
        <g transform="matrix(0.661366,0,0,0.661366,144.077,-140.099)">
            <g transform="matrix(1.51202,-0,-0,1.51202,-217.847,211.833)">
                <path d="M272.536,14.64L278.105,18.381L271.771,20.591L272.536,14.64Z" style="fill:rgb(255,102,0);"/>
                <path d="M256.37,15.587C256.37,15.587 266.947,16.946 273.344,17.769" style="fill:none;stroke:rgb(255,102,0);stroke-width:2px;stroke-linecap:round;stroke-linejoin:round;stroke-miterlimit:1.5;"/>
            </g>
        </g>
    </g>
</svg>
