<?xml version="1.0" encoding="UTF-8" standalone="no"?>
<!DOCTYPE svg PUBLIC "-//W3C//DTD SVG 1.1//EN" "http://www.w3.org/Graphics/SVG/1.1/DTD/svg11.dtd">
<svg width="100%" height="100%" viewBox="0 0 400 215" version="1.1" xmlns="http://www.w3.org/2000/svg" xmlns:xlink="http://www.w3.org/1999/xlink" xml:space="preserve" xmlns:serif="http://www.serif.com/" style="fill-rule:evenodd;clip-rule:evenodd;">
    <g id="Layer-1" serif:id="Layer 1">
        <g id="path5122" transform="matrix(1,0,0,1,-333.259,-122.913)">
            <path d="M378.571,152.047L414.204,246.415" style="fill:none;stroke:black;stroke-width:2px;"/>
        </g>
        <g id="path51221" serif:id="path5122" transform="matrix(1,0,0,1,-197.365,-62.1624)">
            <path d="M378.571,152.047C408.862,167.706 429.814,189.348 443.168,215.858C448.581,226.604 452.746,238.15 455.778,250.421" style="fill:none;stroke:black;stroke-width:2px;"/>
        </g>
        <g id="path51222" serif:id="path5122" transform="matrix(1,0,0,1,-197.365,-62.1624)">
            <path d="M378.571,152.047C388.284,194.694 412.812,227.262 455.778,250.421" style="fill:none;stroke:black;stroke-width:2px;"/>
        </g>
        <g id="path51223" serif:id="path5122" transform="matrix(1,0,0,1,-197.365,-62.1624)">
            <path d="M378.571,152.047L501.97,91.197" style="fill:none;stroke:black;stroke-width:2px;"/>
        </g>
        <g id="path51224" serif:id="path5122" transform="matrix(1,0,0,1,-197.365,-62.1624)">
            <path d="M456.806,248.422L502.41,91.433" style="fill:none;stroke:black;stroke-width:2px;"/>
        </g>
        <g id="path51225" serif:id="path5122" transform="matrix(1,0,0,1,-119.655,37.8416)">
            <path d="M378.571,152.047L490.958,113.206" style="fill:none;stroke:black;stroke-width:2px;"/>
        </g>
        <g id="path5114" transform="matrix(1,0,0,1,-80.8232,-76.6395)">
            <path d="M126.923,107.926L262.064,167.595" style="fill:none;stroke:black;stroke-width:2px;"/>
        </g>
        <g id="path51226" serif:id="path5122" transform="matrix(1,0,0,1,-333.259,-122.913)">
            <path d="M378.571,152.047L637.18,149.896" style="fill:none;stroke:black;stroke-width:2px;"/>
        </g>
        <g id="path51227" serif:id="path5122" transform="matrix(1,0,0,1,-333.259,-122.913)">
            <path d="M702.82,276.983L637.18,149.896" style="fill:none;stroke:black;stroke-width:2px;"/>
        </g>
        <g id="path51228" serif:id="path5122" transform="matrix(1,0,0,1,-350.37,31.3779)">
            <path d="M378.571,152.047L430.543,89.93" style="fill:none;stroke:black;stroke-width:2px;"/>
        </g>
        <g id="path51229" serif:id="path5122" transform="matrix(1,0,0,1,-350.37,31.3779)">
            <path d="M444.297,109.45C480.336,144.075 499.379,74.641 454.359,83.372" style="fill:none;stroke:black;stroke-width:2px;"/>
        </g>
        <g transform="matrix(1,0,0,1,-34.1108,61.9823)">
            <g id="path4622" transform="matrix(1,0,0,1,156.096,-32.0681)">
                <path d="M82.857,59.409C82.857,72.34 72.217,82.981 59.286,82.981C46.355,82.981 35.714,72.34 35.714,59.409C35.714,46.479 46.355,35.838 59.286,35.838C72.217,35.838 82.857,46.479 82.857,59.409L82.857,59.409Z" style="fill:white;stroke:black;stroke-width:2px;"/>
            </g>
            <g transform="matrix(1,0,0,1,53.7056,-13.7736)">
                <text x="156.117px" y="47.114px" style="font-family:'SourceSansPro-Bold', 'Source Sans Pro', sans-serif;font-weight:700;font-size:20px;fill:rgb(255,102,0);">a</text>
            </g>
        </g>
        <g transform="matrix(1,0,0,1,2.95392,9.5979)">
            <g id="path4445" transform="matrix(1,0,0,1,-33.1899,109.313)">
                <path d="M82.857,59.409C82.857,72.34 72.217,82.981 59.286,82.981C46.355,82.981 35.714,72.34 35.714,59.409C35.714,46.479 46.355,35.838 59.286,35.838C72.217,35.838 82.857,46.479 82.857,59.409L82.857,59.409Z" style="fill:white;stroke:black;stroke-width:2px;"/>
            </g>
            <g transform="matrix(1,0,0,1,-135.405,128.411)">
                <text x="156.117px" y="47.114px" style="font-family:'SourceSansPro-Bold', 'Source Sans Pro', sans-serif;font-weight:700;font-size:20px;fill:rgb(255,102,0);">d</text>
            </g>
        </g>
        <g transform="matrix(1,0,0,1,-88.4284,-48.1397)">
            <g id="path4455" transform="matrix(1,0,0,1,109.667,109.313)">
                <path d="M82.857,59.409C82.857,72.34 72.217,82.981 59.286,82.981C46.355,82.981 35.714,72.34 35.714,59.409C35.714,46.479 46.355,35.838 59.286,35.838C72.217,35.838 82.857,46.479 82.857,59.409L82.857,59.409Z" style="fill:white;stroke:black;stroke-width:2px;"/>
            </g>
            <g transform="matrix(1,0,0,1,6.89225,127.411)">
                <text x="156.117px" y="47.114px" style="font-family:'SourceSansPro-Bold', 'Source Sans Pro', sans-serif;font-weight:700;font-size:20px;fill:rgb(255,102,0);">e</text>
            </g>
        </g>
        <g transform="matrix(1,0,0,1,-51.1979,-61.6617)">
            <g id="path4016" transform="matrix(1,0,0,1,37.5241,31.2652)">
                <path d="M82.857,59.409C82.857,72.34 72.217,82.981 59.286,82.981C46.355,82.981 35.714,72.34 35.714,59.409C35.714,46.479 46.355,35.838 59.286,35.838C72.217,35.838 82.857,46.479 82.857,59.409L82.857,59.409Z" style="fill:white;stroke:black;stroke-width:2px;"/>
            </g>
            <g transform="matrix(1,0,0,1,-64.5878,50.2235)">
                <text x="156.117px" y="47.114px" style="font-family:'SourceSansPro-Bold', 'Source Sans Pro', sans-serif;font-weight:700;font-size:20px;fill:rgb(255,102,0);">b</text>
            </g>
        </g>
        <g transform="matrix(1,0,0,1,-2.14573,17.6775)">
            <g id="path4602" transform="matrix(1,0,0,1,202.524,109.313)">
                <path d="M82.857,59.409C82.857,72.34 72.217,82.981 59.286,82.981C46.355,82.981 35.714,72.34 35.714,59.409C35.714,46.479 46.355,35.838 59.286,35.838C72.217,35.838 82.857,46.479 82.857,59.409L82.857,59.409Z" style="fill:white;stroke:black;stroke-width:2px;"/>
            </g>
            <g transform="matrix(1,0,0,1,101.842,128.291)">
                <text x="156.117px" y="47.114px" style="font-family:'SourceSansPro-Bold', 'Source Sans Pro', sans-serif;font-weight:700;font-size:20px;fill:rgb(255,102,0);">f</text>
            </g>
        </g>
        <g transform="matrix(1,0,0,1,-34,-16)">
            <g id="path4752" transform="matrix(1,0,0,1,345.381,109.313)">
                <path d="M82.857,59.409C82.857,72.34 72.217,82.981 59.286,82.981C46.355,82.981 35.714,72.34 35.714,59.409C35.714,46.479 46.355,35.838 59.286,35.838C72.217,35.838 82.857,46.479 82.857,59.409L82.857,59.409Z" style="fill:white;stroke:black;stroke-width:2px;"/>
            </g>
            <g transform="matrix(1,0,0,1,242.589,126.411)">
                <text x="156.117px" y="47.114px" style="font-family:'SourceSansPro-Bold', 'Source Sans Pro', sans-serif;font-weight:700;font-size:20px;fill:rgb(255,102,0);">g</text>
            </g>
        </g>
        <g transform="matrix(1,0,0,1,-27.2119,-62.7777)">
            <g id="path4863" transform="matrix(1,0,0,1,273.238,31.2653)">
                <path d="M82.857,59.409C82.857,72.34 72.217,82.981 59.286,82.981C46.355,82.981 35.714,72.34 35.714,59.409C35.714,46.479 46.355,35.838 59.286,35.838C72.217,35.838 82.857,46.479 82.857,59.409L82.857,59.409Z" style="fill:white;stroke:black;stroke-width:2px;"/>
            </g>
            <g transform="matrix(1,0,0,1,170.658,49.2235)">
                <text x="156.117px" y="47.114px" style="font-family:'SourceSansPro-Bold', 'Source Sans Pro', sans-serif;font-weight:700;font-size:20px;fill:rgb(255,102,0);">c</text>
            </g>
        </g>
        <g transform="matrix(0.661366,0,0,0.661366,59.5037,39.8712)">
            <g transform="matrix(1.51202,-0,-0,1.51202,-89.9709,-60.2861)">
                <path d="M207.315,162.022L214.022,161.94L210.064,167.355L207.315,162.022Z" style="fill:rgb(255,102,0);"/>
                <path d="M192.552,173.008C192.552,173.008 203.495,167.367 209.756,164.139" style="fill:none;stroke:rgb(255,102,0);stroke-width:2px;stroke-linecap:round;stroke-linejoin:round;stroke-miterlimit:1.5;"/>
            </g>
        </g>
        <g transform="matrix(0.661366,0,0,0.661366,-17.4766,-38.4478)">
            <g transform="matrix(1.51202,-0,-0,1.51202,26.4251,58.1339)">
                <path d="M118.433,103.687L115.507,109.724L112.433,103.761L118.433,103.687Z" style="fill:rgb(255,102,0);"/>
                <path d="M115.347,96.72C115.347,96.72 115.402,101.219 115.448,104.924" style="fill:none;stroke:rgb(255,102,0);stroke-width:2px;stroke-linecap:round;stroke-linejoin:round;stroke-miterlimit:1.5;"/>
            </g>
        </g>
        <g transform="matrix(0.661366,0,0,0.661366,59.5037,39.8712)">
            <g transform="matrix(1.51202,-0,-0,1.51202,-89.9709,-60.2861)">
                <path d="M217.099,131.651L222.994,128.451L222.017,135.087L217.099,131.651Z" style="fill:rgb(255,102,0);"/>
                <path d="M192.426,172.2C192.426,172.2 212.734,143.135 220.245,132.385" style="fill:none;stroke:rgb(255,102,0);stroke-width:2px;stroke-linecap:round;stroke-linejoin:round;stroke-miterlimit:1.5;"/>
            </g>
        </g>
        <g transform="matrix(1,0,0,1,-3.26825,143.441)">
            <text x="129.246px" y="30.568px" style="font-family:'SourceSansPro-Bold', 'Source Sans Pro', sans-serif;font-weight:700;font-size:22px;fill:rgb(255,102,0);">arêtes</text>
            <text x="97.544px" y="52.568px" style="font-family:'SourceSansPro-Bold', 'Source Sans Pro', sans-serif;font-weight:700;font-size:22px;fill:rgb(255,102,0);">multiples</text>
        </g>
        <g transform="matrix(1,0,0,1,-38.4523,60.6874)">
            <text x="118.516px" y="30.568px" style="font-family:'SourceSansPro-Bold', 'Source Sans Pro', sans-serif;font-weight:700;font-size:22px;fill:rgb(255,102,0);">boucle</text>
        </g>
    </g>
</svg>
