<?xml version="1.0" encoding="UTF-8" standalone="no"?><!DOCTYPE svg PUBLIC "-//W3C//DTD SVG 1.1//EN" "http://www.w3.org/Graphics/SVG/1.1/DTD/svg11.dtd"><svg width="100%" height="100%" viewBox="0 0 1667 896" version="1.1" xmlns="http://www.w3.org/2000/svg" xmlns:xlink="http://www.w3.org/1999/xlink" xml:space="preserve" xmlns:serif="http://www.serif.com/" style="fill-rule:evenodd;clip-rule:evenodd;"><g id="Layer-1" serif:id="Layer 1"><g id="directed"><path id="path5122" d="M241.329,238.855l-20.817,-18.651l-2.431,27.845l23.248,-9.194Z"/><path d="M227.866,238.802c19.028,48.116 68.4,172.961 68.4,172.961" style="fill:none;stroke:#000;stroke-width:8.33px;"/><path id="path51221" serif:id="path5122" d="M864.062,301.426l-17.135,22.082l27.947,0.459l-10.812,-22.541Z"/><path d="M864.96,314.859c80.638,-38.677 404.227,-193.883 404.227,-193.883" style="fill:none;stroke:#000;stroke-width:8.33px;"/><path id="path51222" serif:id="path5122" d="M1102.88,648.567l4.926,27.513l19.055,-20.449l-23.981,-7.064Z"/><path d="M1113.45,656.895c28.766,-97.657 157.568,-534.936 157.568,-534.936" style="fill:none;stroke:#000;stroke-width:8.33px;"/><path id="path51223" serif:id="path5122" d="M1416.06,665.068l27.676,3.913l-19.736,19.792l-7.94,-23.705Z"/><path d="M1078.82,791.203c0,0 271.064,-90.789 345.95,-115.87" style="fill:none;stroke:#000;stroke-width:8.33px;"/><path id="path5114" d="M645.467,307.707l18.189,21.222l-27.891,1.819l9.702,-23.041Z"/><path d="M192.082,130.36c0,0 366.051,154.136 453.142,190.808" style="fill:none;stroke:#000;stroke-width:8.33px;"/><path id="path51224" serif:id="path5122" d="M1145.78,105.331l25.047,12.407l-24.954,12.593l-0.093,-25Z"/><path d="M188.8,121.394c0,0 822.488,-3.062 962.026,-3.582" style="fill:none;stroke:#000;stroke-width:8.33px;"/><path id="path51225" serif:id="path5122" d="M1466.14,533.263l22.469,16.625l-0.181,-27.95l-22.288,11.325Z"/><path d="M1479.55,532.058c-41.707,-82.086 -213.212,-419.629 -213.212,-419.629" style="fill:none;stroke:#000;stroke-width:8.33px;"/><path id="path51226" serif:id="path5122" d="M418.392,593.906l-27.028,-7.121l10.52,25.895l16.508,-18.774Z"/><path d="M406.383,599.991c140.216,111.823 208.131,-157.014 26.906,-121.868" style="fill:none;stroke:#000;stroke-width:8.33px;"/><path id="path51227" serif:id="path5122" d="M1045.78,656.282l-1.612,27.904l-21.356,-18.032l22.968,-9.872Z"/><path d="M837.509,424.486c82.939,58.698 144.078,131.363 186.669,215.912c4.209,8.356 8.237,16.828 12.087,25.414" style="fill:none;stroke:#000;stroke-width:8.33px;"/><path id="path51228" serif:id="path5122" d="M981.14,708.277l12.765,24.866l-27.551,-4.707l14.786,-20.159Z"/><path d="M755.027,374.52c32.318,141.907 104.006,257.031 222.751,346.794" style="fill:none;stroke:#000;stroke-width:8.33px;"/></g><g><path id="path4622" d="M853.509,372.182c0,53.879 -44.336,98.214 -98.214,98.214c-53.879,0 -98.215,-44.335 -98.215,-98.214c0,-53.879 44.336,-98.214 98.215,-98.214c53.878,0 98.214,44.335 98.214,98.214l0,0Z" style="fill:#fff;stroke:#000;stroke-width:8.33px;"/><text x="732.135px" y="397.179px" style="font-family:'SourceSansPro-Bold', 'Source Sans Pro', sans-serif;font-weight:700;font-size:83.333px;fill:#f60;">a</text></g><g><path id="path46221" serif:id="path4622" d="M853.509,372.182c0,53.879 -44.336,98.214 -98.214,98.214c-53.879,0 -98.215,-44.335 -98.215,-98.214c0,-53.879 44.336,-98.214 98.215,-98.214c53.878,0 98.214,44.335 98.214,98.214l0,0Z" style="fill:#f60;stroke:#000;stroke-width:8.33px;"/><text x="732.135px" y="397.179px" style="font-family:'SourceSansPro-Bold', 'Source Sans Pro', sans-serif;font-weight:700;font-size:83.333px;fill:#fff;">a</text></g><g><path id="path4445" d="M219.255,743.001c0,53.878 -44.336,98.214 -98.215,98.214c-53.878,0 -98.214,-44.336 -98.214,-98.214c0,-53.879 44.336,-98.215 98.214,-98.215c53.879,0 98.215,44.336 98.215,98.215l0,0Z" style="fill:#fff;stroke:#000;stroke-width:8.33px;"/><text x="98.609px" y="771.344px" style="font-family:'SourceSansPro-Bold', 'Source Sans Pro', sans-serif;font-weight:700;font-size:83.333px;fill:#f60;">d</text></g><g><path id="path4455" d="M433.733,502.427c0,53.879 -44.335,98.215 -98.214,98.215c-53.879,0 -98.214,-44.336 -98.214,-98.215c0,-53.878 44.335,-98.214 98.214,-98.214c53.879,0 98.214,44.336 98.214,98.214l0,0Z" style="fill:#fff;stroke:#000;stroke-width:8.33px;"/><text x="310.755px" y="526.604px" style="font-family:'SourceSansPro-Bold', 'Source Sans Pro', sans-serif;font-weight:700;font-size:83.333px;fill:#f60;">e</text></g><g><path id="path4016" d="M288.264,120.887c0,53.879 -44.336,98.215 -98.214,98.215c-53.879,0 -98.215,-44.336 -98.215,-98.215c0,-53.878 44.336,-98.214 98.215,-98.214c53.878,0 98.214,44.336 98.214,98.214l0,0Z" style="fill:#fff;stroke:#000;stroke-width:8.33px;"/><text x="168.049px" y="148.65px" style="font-family:'SourceSansPro-Bold', 'Source Sans Pro', sans-serif;font-weight:700;font-size:83.333px;fill:#f60;">b</text></g><g><path id="path4602" d="M1180.15,776.666c0,53.878 -44.335,98.214 -98.214,98.214c-53.879,0 -98.215,-44.336 -98.215,-98.214c0,-53.879 44.336,-98.215 98.215,-98.215c53.879,0 98.214,44.336 98.214,98.215l0,0Z" style="fill:#fff;stroke:#000;stroke-width:8.33px;"/><text x="1065.89px" y="804.509px" style="font-family:'SourceSansPro-Bold', 'Source Sans Pro', sans-serif;font-weight:700;font-size:83.333px;fill:#f60;">f</text></g><g><path id="path4752" d="M1642.66,636.343c0,53.879 -44.336,98.214 -98.214,98.214c-53.879,0 -98.215,-44.335 -98.215,-98.214c0,-53.879 44.336,-98.214 98.215,-98.214c53.878,0 98.214,44.335 98.214,98.214l0,0Z" style="fill:#fff;stroke:#000;stroke-width:8.33px;"/><text x="1519.61px" y="656.353px" style="font-family:'SourceSansPro-Bold', 'Source Sans Pro', sans-serif;font-weight:700;font-size:83.333px;fill:#f60;">g</text></g><g><path id="path4863" d="M1370.35,116.237c0,53.879 -44.335,98.215 -98.214,98.215c-53.879,0 -98.214,-44.336 -98.214,-98.215c0,-53.878 44.335,-98.214 98.214,-98.214c53.879,0 98.214,44.336 98.214,98.214l0,0Z" style="fill:#fff;stroke:#000;stroke-width:8.33px;"/><text x="1248.18px" y="139.833px" style="font-family:'SourceSansPro-Bold', 'Source Sans Pro', sans-serif;font-weight:700;font-size:83.333px;fill:#f60;">c</text></g><path d="M942.344,776.253l25.015,12.47l-24.985,12.53l-0.03,-25Z" style="fill:#f60;"/><path d="M862.007,788.85c0,0 54.798,-0.066 85.352,-0.103" style="fill:none;stroke:#f60;stroke-width:8.33px;stroke-linecap:round;stroke-linejoin:round;stroke-miterlimit:1.5;"/><text x="336.748px" y="807.709px" style="font-family:'SourceSansPro-Bold', 'Source Sans Pro', sans-serif;font-weight:700;font-size:100px;fill:#f60;">successeur</text><path d="M326.55,85.534l-26.036,-10.167l23.755,-14.729l2.281,24.896Z" style="fill:#f60;"/><path d="M414.277,64.944c0,0 -61.227,5.61 -93.846,8.598" style="fill:none;stroke:#f60;stroke-width:8.33px;stroke-linecap:round;stroke-linejoin:round;stroke-miterlimit:1.5;"/><path d="M1135.85,60.582l22.915,16.005l-26.553,8.729l3.638,-24.734Z" style="fill:#f60;"/><path d="M1089.36,66.378c0,0 29.104,4.281 49.62,7.299" style="fill:none;stroke:#f60;stroke-width:8.33px;stroke-linecap:round;stroke-linejoin:round;stroke-miterlimit:1.5;"/><text x="452.765px" y="82.697px" style="font-family:'SourceSansPro-Bold', 'Source Sans Pro', sans-serif;font-weight:700;font-size:91.667px;fill:#f60;">prédécesseurs</text></g></svg>